<?xml version="1.0" standalone="no"?>
<!DOCTYPE svg PUBLIC "-//W3C//DTD SVG 1.1//EN" "http://www.w3.org/Graphics/SVG/1.1/DTD/svg11.dtd" >
<svg xmlns="http://www.w3.org/2000/svg">
<metadata></metadata>
<defs>
<font id="vallimedium" horiz-adv-x="999" >
<font-face units-per-em="2048" ascent="1638" descent="-410" />
<missing-glyph horiz-adv-x="614" />
<glyph horiz-adv-x="2048" />
<glyph horiz-adv-x="2048" />
<glyph unicode="&#xd;" horiz-adv-x="681" />
<glyph unicode=" "  horiz-adv-x="614" />
<glyph unicode="&#x09;" horiz-adv-x="614" />
<glyph unicode="&#xa0;" horiz-adv-x="614" />
<glyph unicode="!" horiz-adv-x="798" d="M-12 -24.5q0 36.5 24.5 61t61.5 24.5t61.5 -24.5t24.5 -61t-24.5 -61.5t-61.5 -25t-61.5 25t-24.5 61.5zM96 272q6 59 31 146q29 100 35 127q12 63 37.5 246.5t60.5 316.5t100 248q12 23 38 30t48.5 -5.5t29.5 -38t-5 -48.5q-59 -104 -90 -223t-54.5 -293t-41.5 -258 q-6 -33 -35 -137q-23 -76 -27 -123q-4 -27 -23.5 -43t-46 -13t-43 22t-14.5 46z" />
<glyph unicode="&#x22;" horiz-adv-x="923" d="M119 836q10 94 88 594q4 27 25.5 42t48 11t42 -25.5t11.5 -48.5q-82 -532 -88 -586q-4 -27 -24.5 -43t-46 -13t-42 23.5t-14.5 45.5zM311 815q16 72 39 156l39 143l47 160l43 147q8 25 30.5 37t48.5 5t38 -29.5t6 -49.5l-43 -145l-47 -156l-39 -141l-39 -156 q-6 -27 -28.5 -40t-48 -7t-39 29t-7.5 47z" />
<glyph unicode="#" horiz-adv-x="1523" d="M-282 444.5q-3 26.5 12.5 47t42.5 24.5q188 25 405 39q29 72 68 160l14 30q-207 -8 -344 -10q-27 0 -46.5 18.5t-19.5 44t18.5 45t43.5 19.5q152 4 410 12q150 315 200 472q6 25 29.5 36t49.5 3.5t37 -31t3 -49.5q-51 -160 -178 -426l112 4l5 10l63 145l66 154 q25 55 53.5 137t46.5 154q6 25 28.5 38t48 7t39 -28.5t7.5 -49.5q-14 -57 -32.5 -114.5t-43.5 -121.5l-45 -104l-49 -119q-33 -76 -47 -104q242 6 426 6q27 0 45 -18.5t18 -45t-18.5 -45t-44.5 -18.5q-203 0 -479 -8q-39 -96 -70 -180l57 2q14 0 114.5 5t140.5 5t116 -6 t137 -23q25 -6 38 -28.5t7 -48t-28.5 -39t-49.5 -7.5q-55 12 -116 19q-68 6 -104 6t-132 -5t-119 -5l-106 -4q-74 -223 -105 -416q-6 -27 -26.5 -42.5t-47 -10t-42 26t-11.5 46.5q31 182 97 389l-146 -8q-82 -221 -92 -411q-2 -27 -21.5 -44.5t-46 -15.5t-44 21.5 t-15.5 46.5q10 186 82 395q-178 -14 -340 -37q-27 -2 -47.5 13.5t-23.5 42zM319 565q66 4 136 6q31 86 69 183l-121 -4l-43 -88z" />
<glyph unicode="$" horiz-adv-x="1304" d="M34 87q7 26 30.5 37t48.5 5q33 -12 95 -33.5t107 -35t86 -19.5q2 109 2 313q-2 193 0 279l-108 49q-100 51 -133 98q-51 74 -57.5 154t21.5 145.5t79 124.5q100 115 248 176q-10 129 -13 162q-2 25 16.5 44.5t44 21.5t45 -16.5t21.5 -45.5l11 -129q90 10 147 1t137 -40 q25 -10 36 -33.5t1 -48t-33.5 -35.5t-48.5 -1q-70 27 -112.5 33.5t-110.5 -3.5h-8q2 -51 -2 -92q-6 -59 -25 -199q-18 -123 -22 -190l-5 -92q84 -37 137.5 -62.5t122 -70.5t107.5 -90q98 -117 86 -238q-12 -106 -104 -193q-70 -63 -166.5 -104t-192.5 -49l-2 -19 q-2 -27 -21.5 -44t-46 -15t-44 21.5t-15.5 46.5l2 14q-53 6 -107.5 21.5t-123.5 39.5q-63 23 -88 31q-27 8 -38 31.5t-4 49.5zM264 854q16 -20 88 -57l56 -27q0 25 2 47q4 74 22 201q20 147 25 192q2 16 2 33q-94 -49 -158 -123q-123 -143 -37 -266zM528 39q162 20 265 117 q59 55 65 114q6 66 -57 142q-62 74 -271 168q-2 -61 0 -226q0 -201 -2 -315z" />
<glyph unicode="%" horiz-adv-x="1507" d="M-16 961q25 66 88 139q55 68 121 117q74 57 122 61q27 2 58 -6q4 2 10 2q92 25 139 -29q41 -45 25 -125q-12 -55 -51 -123q-82 -141 -203 -215q-45 -29 -91 -40t-98.5 0.5t-95.5 54.5q-61 61 -24 164zM0 55.5q-2 26.5 16 44.5q117 135 291 383q229 328 285 402 q51 66 147.5 177.5t165 203.5t113.5 182q12 23 36.5 31t48 -3.5t32 -36t-1.5 -48.5q-49 -96 -125 -197.5t-174.5 -217.5t-139.5 -169q-55 -70 -282 -395q-176 -252 -301 -394q-16 -20 -43 -22t-46.5 15.5t-21.5 44zM98 887q47 -47 129 4q92 55 160 170q25 45 33 80 q-18 -10 -41 -4h-4q-43 -18 -101 -56q-25 -16 -53 -8q-29 -27 -51 -55q-49 -57 -66 -103q-8 -20 -6 -28zM588 139q-41 82 24 189q53 86 156.5 149.5t212.5 63.5q33 0 53 -29q47 2 82 -10q63 -27 72 -94q4 -45 -23 -101q-45 -94 -149 -172q-117 -88 -223 -88q-156 0 -205 92z M702 197q10 -23 91 -23q63 0 147 62q78 61 111 126q8 13 10 23q-57 8 -205 -49q-31 -12 -57 6q-51 -37 -78 -82q-29 -45 -19 -63z" />
<glyph unicode="&#x26;" horiz-adv-x="1492" d="M40 217q-1 12 0 31.5t1 21.5q0 219 197 432q-72 96 -105 199q-18 61 -26.5 132t4 150t49.5 138q39 66 127 117q88 53 188 78q66 16 129.5 18t130 -17.5t109.5 -64.5q92 -100 20 -262q-39 -84 -125 -186q-59 -70 -182 -179l-147 -131q68 -72 228.5 -195.5t182.5 -142.5 l23 -18l55 63q143 164 164 187q18 20 45 20t46.5 -17.5t19.5 -44t-17 -44.5q-33 -33 -162 -185l-55 -63l186 -170q20 -18 20.5 -45t-17 -46.5t-44 -19.5t-45.5 17l-190 174l-27 -27q-219 -195 -481 -186q-106 4 -160 31q-63 35 -116 129q-8 16 -14.5 34.5t-8.5 39t-3 32.5z M168 270q0 -84 8 -98q35 -61 66 -78q29 -14 104 -16q211 -8 393 155l15 13l-15 12q-39 33 -125 98l-159 125q-77 62 -136 123q-152 -168 -151 -334zM230 1105q-1 -93 26 -167q23 -75 72 -145l145 129q119 106 168 163q76 88 107 158q39 84 2 123q-29 31 -93.5 39t-150.5 -12 q-84 -20 -149.5 -59.5t-90.5 -78.5q-35 -57 -36 -150z" />
<glyph unicode="'" horiz-adv-x="583" d="M121 975q18 82 16 217q-2 203 0 238q2 27 21.5 44t46 15t44 -21.5t15.5 -46.5q-2 -31 0 -227q2 -150 -20 -248q-6 -25 -27.5 -39t-47.5 -8t-40 27.5t-8 48.5z" />
<glyph unicode="(" horiz-adv-x="1028" d="M108.5 743.5q53.5 274.5 233.5 540.5q14 20 39 62.5t44 71t49 63.5t67 61.5t80 44.5q25 10 49 -1t34.5 -34.5t-0.5 -48.5t-34 -35q-39 -14 -71 -41.5t-47 -50t-49 -78t-54 -84.5q-166 -244 -215.5 -492.5t3 -489t197.5 -508.5q12 -23 5 -48.5t-29.5 -38t-48 -5 t-37.5 29.5q-156 287 -212.5 547t-3 534.5z" />
<glyph unicode=")" horiz-adv-x="903" d="M94 -433.5q-6 25.5 6 48.5q84 139 205 436q80 197 117 346q37 150 33 318q-2 166 -56 350q-78 270 -223 379q-23 16 -27 41.5t12.5 47t42.5 25.5t46 -12q182 -133 272 -444q57 -201 60.5 -386.5t-35.5 -346t-123 -367.5q-123 -301 -213 -453q-14 -23 -40 -28.5t-48.5 7.5 t-28.5 38.5z" />
<glyph unicode="*" horiz-adv-x="1468" d="M133 555q-23 43 8 109q20 43 66 100q43 51 131 139l121 113q-143 -8 -248 -8q-16 0 -27.5 11t-11.5 27.5t11.5 27.5t27.5 11q96 0 217 9q-176 145 -264 264q-8 12 -6 28.5t15 25.5t29.5 7t26.5 -16q55 -76 127 -141.5t176 -151.5q4 31 7 53q12 152 -7 215q-4 12 -10 21.5 t-14 25.5l-19 29q-8 14 -2.5 29.5t19.5 24t29.5 3t23.5 -19.5q2 -4 13.5 -21.5t20.5 -35t13 -31.5q25 -80 12 -244q154 127 316 244q12 8 28.5 6t25.5 -15.5t7 -29.5t-16 -27q-152 -109 -293 -227q260 18 426 8q16 0 27.5 -12t10.5 -28.5t-13.5 -28t-28.5 -9.5 q-166 8 -444 -10l-27 -2q55 -45 98 -84q59 -51 88 -82q35 -37 51 -61q12 -18 17 -33q10 -27 -2 -47q-16 -31 -62 -57q-37 -20 -92 -39q-59 -20 -141 -39v-29q0 -16 -11.5 -27.5t-27.5 -11.5t-27.5 11.5t-11.5 27.5v6v6l-16 -4q-121 -23 -224 -33q-49 -4 -77 -4 q-16 0 -26.5 2t-16.5 5q-16 6 -23 20zM205 608q23 0 63 4q100 8 217 31l29 6q-2 201 2 279q0 16 2 35l-123 -117q-86 -84 -127 -133q-39 -47 -55 -82q-6 -12 -8 -23zM594 666q66 16 115 34q49 16 79 33q14 8 25 19l-4 4q-14 20 -43 51q-27 29 -84 80q-35 30 -86 71 q0 -18 -2 -34q-4 -80 0 -258z" />
<glyph unicode="+" horiz-adv-x="1394" d="M2 536.5q-2 26.5 14 47t43 22.5q55 0 82 1t79 -7t75.5 -13t74 -17.5t70.5 -16.5q33 113 37 147q2 8 -2 168v109v39q0 8 2 16q0 6 2 10q4 16 15 29q25 27 57 23q39 -2 55 -41q8 -14 10 -39v-10q0 -10 2 -17v-4q4 -10 27 -43q47 -66 117 -133q8 -6 63 -51l107 -88 q63 -57 98 -97q25 -29 35 -53q20 -45 2 -82q-10 -20 -31 -28l-12 -5q-2 -2 -6 -2h-6h-8h-23q-27 -2 -70 -2q-96 0 -149 2q-172 4 -232 11q-47 -186 -55 -414q0 -27 -19.5 -44t-46 -17t-44 19t-17.5 46q8 233 58 430q-25 4 -72 15.5t-67.5 15.5t-65.5 11t-64.5 6t-64.5 -1 q-27 -2 -47.5 14.5t-22.5 43zM567 535q43 -2 199 -7q45 0 131 -2l-49 47q-37 33 -103 84q-59 49 -69 60q-43 38 -72 71q2 -88 0 -104q-6 -41 -37 -149z" />
<glyph unicode="," horiz-adv-x="737" d="M-39 -297q-2 27 16 45q33 39 111 115q74 72 107 108q102 121 96 228q-2 27 15.5 46t44 21t46 -15t21.5 -44q8 -160 -127 -318q-37 -43 -115 -118q-76 -74 -104 -105q-16 -20 -43 -22t-46.5 15t-21.5 44z" />
<glyph unicode="-" d="M-44 549.5q-5 25.5 9 48.5t41 27q59 12 119.5 20t131.5 10t115 3t130 0t114 -1q27 0 45.5 -18t18.5 -45t-18.5 -45.5t-45.5 -18.5q-33 0 -117.5 1t-125.5 0t-108.5 -3t-123 -9t-110.5 -17q-25 -6 -47.5 8t-27.5 39.5z" />
<glyph unicode="." horiz-adv-x="483" d="M-20 96q0 39 26.5 65.5t65.5 26.5t65.5 -26.5t26.5 -65.5t-26.5 -65.5t-65.5 -26.5t-65.5 26.5t-26.5 65.5z" />
<glyph unicode="/" horiz-adv-x="1413" d="M-165.5 -16q0.5 27 18.5 45q115 121 223 274l231 340q121 186 207 303q186 248 475 496q20 16 46 14t43.5 -22.5t15.5 -46t-23 -44.5q-272 -236 -455 -475q-82 -106 -200 -290q-123 -190 -240 -352.5t-233 -282.5q-16 -20 -43 -20.5t-46.5 17t-19 44.5z" />
<glyph unicode="0" horiz-adv-x="1304" d="M29 408q0 336 159 622l-2 2q-18 18 -16 45t20 45l134 123q68 59 114 92l29 25q17 10 35 12q125 51 217 33t155 -98q100 -127 111 -359q4 -125 -8 -247.5t-47 -254t-110 -246t-183 -188.5q-121 -76 -229.5 -71.5t-200.5 75.5q-82 66 -130 170.5t-48 219.5zM156 408 q0 -86 35.5 -165t95.5 -124q127 -102 280 2q113 78 183.5 221t92 291.5t15.5 312.5q-8 190 -82 283q-80 98 -233 24l-29 -16q-170 -145 -264 -368.5t-94 -460.5z" />
<glyph unicode="1" horiz-adv-x="784" d="M64 188.5q-11 100.5 1.5 208t26.5 193.5t52 205.5t61.5 186.5t72 191.5t64.5 172.5q8 25 32.5 36t49.5 1.5t36 -34t1 -49.5l-60 -155l-61 -162q-20 -59 -53 -157.5t-49.5 -165t-33 -157.5t-17.5 -163t7.5 -154t32.5 -157q6 -25 -6 -48.5t-36.5 -30.5t-48 5t-32.5 37 q-29 96 -40 196.5z" />
<glyph unicode="2" horiz-adv-x="1269" d="M47 80q-47 96 14 233q31 72 74 142.5t105 146.5l100 123l119 131l102 113l82 84q57 59 91 100t54 86q27 55 11 78q-18 27 -84 39q-80 10 -158 3t-127 -22q-68 -23 -114 -59.5t-115 -112.5q-18 -18 -45 -20t-45.5 16.5t-20.5 45t16 44.5q51 55 82 85t85.5 66t115.5 54 q63 23 156.5 30t191.5 -5q115 -23 164 -88q63 -84 2 -211q-27 -51 -68.5 -103.5t-105.5 -115.5q-59 -63 -74 -80q-27 -31 -104.5 -115t-114.5 -129l-94 -115q-57 -70 -97 -134t-69 -130q-37 -82 -14 -127q16 -35 76 -53q74 -18 158.5 -14t158.5 26q27 8 56.5 19.5t64.5 29.5 l57 31l66 37l57 33q23 12 48.5 5t37.5 -29.5t5 -48.5t-29 -38q-10 -6 -54 -31l-69 -39l-64 -32q-39 -20 -73.5 -34.5t-65.5 -25.5q-88 -27 -189.5 -32t-201.5 22q-113 35 -154 121z" />
<glyph unicode="3" horiz-adv-x="1363" d="M25 1251.5q0 26.5 18 44.5l27 27l24 29q12 10 23 16q27 20 104 45q41 12 126 15.5t175 -7.5q106 -14 166 -49q98 -57 76 -158q-25 -115 -154 -233q-70 -66 -190 -145l72 -9q57 -8 86 -12l77 -16q51 -10 85 -22.5t77 -33t76 -45.5q158 -117 154 -260q-4 -121 -121 -237 q-90 -90 -223.5 -161t-240 -97.5t-319.5 -26.5q-27 0 -45 18.5t-18 45t18.5 45t44.5 18.5q197 0 287 23q94 23 212 85t194 140q82 80 84 151q2 78 -101 154q-35 25 -72.5 42t-86 28.5t-82 17.5t-99.5 16l-96 13q-12 2 -37 4q-35 4 -45 4q-63 6 -104 31q-6 4 -11 8 q-18 16 -22 39q-8 37 20 61q8 6 21 10l14 7q8 2 14 4q47 14 105 53q121 80 186 141q100 90 117 164q2 12 -18 25q-37 23 -117 32q-84 8 -152.5 5t-95.5 -11q-55 -16 -65 -22q-6 -4 -10.5 -9.5t-18.5 -19.5l-31 -33q-18 -18 -45 -18t-45 18.5t-18 45z" />
<glyph unicode="4" horiz-adv-x="1325" d="M8 395q14 35 37 73t50.5 79t33.5 49q279 459 559 870q16 23 42 28t47.5 -10.5t26.5 -41t-9 -45.5q-281 -412 -559 -867q-10 -18 -36 -56t-44.5 -68.5t-30.5 -59.5q-37 -88 10 -127q78 -68 264 -10q133 43 293 139q111 68 164 111v2q2 2 6 8t10 14q16 18 29 29q35 23 70 2 q31 -16 35 -51q4 -43 -23 -90l-22 -37q-121 -311 -138 -617q-2 -25 -21.5 -43t-45 -16t-44 21.5t-16.5 46.5q14 272 105 540q-35 -23 -43 -26q-172 -106 -322 -154q-252 -78 -383 33q-119 102 -45 274z" />
<glyph unicode="5" horiz-adv-x="1419" d="M70 410q0 27 18 45t45 18t45.5 -18t18.5 -45q0 -186 71 -232q49 -29 191 -24q184 6 308 110.5t126 274.5q2 158 -154 237q-145 74 -331 51q-94 -10 -148 -55q-6 -4 -16 -14q-12 -12 -19 -17q-25 -18 -53 -16q-35 2 -55 33q-45 63 -29 172q4 27 16 74q8 39 11 53 q25 160 16 280l-10 23q-8 25 -8 45q2 49 47 67.5t106 -2.5q53 -16 56 -16q45 -6 120 -10q106 -6 303 -6q199 0 293 -4q27 -2 45.5 -21.5t16.5 -45.5t-21.5 -44t-44.5 -16q-96 4 -297 4q-193 0 -303 6q-78 4 -129 10q-18 2 -47 12q8 -133 -16 -303l-15 -63q-10 -41 -14 -62 q0 -10 -2 -18q74 49 180 61q225 25 406 -65q102 -51 163.5 -140.5t59.5 -209.5q-2 -158 -82 -275q-82 -117 -205 -174q-125 -59 -270 -63q-180 -6 -260 45q-133 82 -133 338z" />
<glyph unicode="6" horiz-adv-x="1306" d="M13.5 433q2.5 26 23.5 42l20 19q29 184 142 385q135 240 333 401q201 164 396 154q25 -2 43 -21.5t16 -45.5t-21 -44t-46 -16q-143 8 -316 -131q-172 -141 -295 -359q-59 -104 -94 -209q35 16 72 29q41 14 124 19.5t119 0.5q264 -29 336 -188q63 -143 -43 -307 q-61 -92 -159.5 -154.5t-219 -72t-235.5 80.5q-158 121 -162 353q-12 6 -20 18q-16 20 -13.5 46zM176 406q-10 -195 111 -291q111 -76 232.5 -37t197.5 153q70 106 35 185q-43 96 -234 114q-37 4 -100.5 0t-89.5 -12q-70 -24 -152 -92v-20z" />
<glyph unicode="7" horiz-adv-x="1427" d="M58 1383.5q5 25.5 27.5 40t49.5 8.5q39 -8 102.5 -10.5t185.5 -0.5t175 2q168 0 264 -16q145 -23 197 -90q98 -125 10 -264q-20 -29 -46 -59.5t-62.5 -66.5t-42.5 -40q-14 -16 -84 -88l-91 -97l-81 -88q-61 -66 -89 -98l-75 -90q-51 -59 -80 -102l-66 -97 q-39 -55 -68.5 -106t-54.5 -105q-12 -25 -36.5 -34t-48 3.5t-33 37t3.5 47.5q31 66 69 131l74 118q33 49 90 123l86 109q29 35 103 117l92 98l104 111q84 88 94 96q14 16 46 48t52.5 54.5t35.5 44.5q41 66 0 119q-23 29 -119 43q-86 14 -246 14q-35 0 -165 -2t-202.5 1 t-122.5 14q-25 4 -39 26.5t-9 48z" />
<glyph unicode="8" horiz-adv-x="1214" d="M-68 250q-2 86 93 213q70 92 198 221l23 23q-86 74 -140 155q-127 201 -16 365q37 55 127 116q92 63 193 105q117 47 208 49q125 2 189 -78q94 -115 14 -274q-35 -72 -137 -189q-35 -43 -158 -157l-57 -56q2 -2 6 -4q29 -25 158 -108q111 -72 166 -131q123 -127 90 -275 q-31 -150 -193 -227q-135 -66 -309 -59q-176 6 -299 77q-152 86 -156 234zM59 254q2 -76 93 -129q96 -55 239 -59q145 -6 250 45q106 51 125 139q16 84 -57 164q-45 45 -146 110q-112 74 -145 99q-31 -14 -58 2l-10 6l-39 -37q-121 -123 -184 -207q-70 -92 -68 -133z M197 1157q-66 -96 16 -227q47 -72 125 -135l102 96q117 111 150 147q90 106 119 162q43 88 0 141q-25 31 -88 29q-70 -2 -164 -41q-88 -35 -163 -87t-97 -85z" />
<glyph unicode="9" horiz-adv-x="1245" d="M71 977q-3 88 26.5 166t84.5 143q84 104 210 152.5t261 9.5q209 -61 260 -285q35 -164 -22 -389q10 -12 12 -29q2 -23 -9 -41t-32 -26q-70 -205 -186.5 -384t-231.5 -247q-43 -25 -99 -36t-82.5 -12t-88.5 -1q-27 0 -45 18.5t-18 45t18 45t45 18.5q55 0 82 1t62.5 8 t60.5 24q82 47 179 188t163 313q-139 -14 -242 -10q-276 14 -362 166q-43 74 -46 162zM202 1039q-16 -89 25 -162q51 -90 258 -101q109 -3 279 17q55 203 24 342q-33 152 -172 190q-92 27 -182 -6q-90 -35 -153 -115q-63 -76 -79 -165z" />
<glyph unicode=":" horiz-adv-x="657" d="M47 74q-18 61 17.5 125.5t113.5 99.5q25 12 49.5 3t34.5 -34q21 -42 -14 -73q10 -4 18 -11q23 -14 27 -40.5t-12 -47.5q-57 -80 -119 -92q-41 -6 -73 14.5t-42 55.5zM79 821q-9 25 3 47l4 11q0 10 2 22q6 20 23 39q10 23 22 37q25 25 70 24l18 -2h35q27 0 45 -18t18 -45 v-8q23 -27 19 -59.5t-33 -51.5q-12 -10 -31 -14q-25 -6 -55 -6q-18 0 -35 2q-31 -35 -71 -15q-25 12 -34 37z" />
<glyph unicode=";" horiz-adv-x="600" d="M-27 -189.5q-2 25.5 15 46.5q82 96 116.5 156.5t45.5 146.5q4 25 24.5 41t46 13t41.5 -23.5t14 -47.5q-10 -78 -40.5 -147.5t-60.5 -110.5t-89 -110q-18 -20 -44 -22.5t-46.5 15t-22.5 43zM53 883.5q-6 25.5 8 48.5l23 37q14 25 31 37q14 10 43 16l43 10q25 6 48 -6 t29.5 -37.5t-6 -49.5t-39.5 -30q-20 -6 -43 -10l-22 -37q-14 -20 -40 -26.5t-47.5 8t-27.5 40z" />
<glyph unicode="&#x3c;" horiz-adv-x="1300" d="M-55 416q-2 18 6 35q2 6 6 12l6 6q4 4 7 6t7 6l23 17l68 47l100 69q135 96 358 226l359 207q23 14 48 8t38.5 -28.5t7.5 -48.5t-29 -38q-53 -33 -360 -211q-221 -129 -348 -217l-103 -72l-6 -4l96 -43l107 -45q33 -14 90 -33.5t104 -31.5q23 -6 103 -20.5t140.5 -33 t113.5 -53.5q23 -14 29 -39.5t-8.5 -47t-40 -28t-46.5 8.5q-45 27 -90 40t-115.5 25t-117.5 25q-70 18 -140.5 43.5t-178 73t-128.5 55.5q-2 2 -8 4q-20 4 -27 4q-63 18 -71 76z" />
<glyph unicode="=" horiz-adv-x="1441" d="M-16 311q6 8 12 15q4 2 8 6q2 0 4 2q2 0 4 2l4 2l19 6l57 25q94 37 170 61q20 6 86 25l160 43l168 47q152 45 237 73l23 9q-47 10 -111 18q-145 18 -372 23q-377 6 -383 6q-27 2 -44.5 20.5t-16.5 45t19.5 44t45.5 17.5q4 0 381 -6q233 -4 387 -23q78 -10 137 -24 q61 -16 94 -39q31 -18 43 -47q18 -41 -8 -82q-10 -16 -33 -31q-12 -8 -33 -17q-33 -14 -88 -32q-88 -31 -243 -76l-377 -107q16 2 37 2q47 2 157.5 8.5t139.5 6.5h96q37 -4 88 -15q2 0 32.5 -6t47.5 -8q27 -6 42 -27.5t10 -47t-26.5 -41t-46.5 -11.5q-2 2 -84 17 q-45 10 -75 12q-23 2 -74 0t-150 -6q-86 -6 -151 -8q-150 -6 -225 -3q-53 2 -86 9q-53 10 -78 37q-31 37 -4 75z" />
<glyph unicode="&#x3e;" horiz-adv-x="1380" d="M-33 6.5q-2 26.5 17 46.5q37 41 85 82t115 82l111 70q43 29 133 71.5t115.5 56t126.5 58.5l100 45q4 2 64 25q41 14 65 28q27 14 35 27v4q-12 10 -23 16q-31 14 -82 31q-27 8 -165 43q-340 84 -658 301q-23 16 -28 42t10.5 47.5t41.5 26.5t46 -9q303 -205 620 -285 q147 -37 170 -45q63 -18 103 -39q63 -33 80 -76q31 -66 -9 -125q-25 -39 -79 -69q-33 -18 -84 -37l-54 -21q-10 -4 -92 -43l-104 -47q-25 -10 -100.5 -47t-108.5 -55l-94 -55q-61 -35 -97.5 -60.5t-79.5 -60.5q-39 -33 -69 -68q-16 -18 -43 -20t-46.5 15.5t-21.5 44z" />
<glyph unicode="?" horiz-adv-x="1157" d="M139 1253.5q2 26.5 23 42.5q12 12 43 39l45 41q14 12 40.5 31.5t54.5 35t61 30.5q49 20 103 30t118.5 3t115.5 -40q121 -78 91 -229q-20 -104 -115 -244q-63 -92 -174 -221l-74 -86q-35 -41 -47 -59q-47 -70 -49 -76v-25q2 -53 2 -82q0 -27 -18.5 -45t-45 -18t-45 18.5 t-18.5 45t-2 75.5q-2 37 2 58q2 10 6 20t8 17.5t12.5 19.5t12.5 19.5t14 21.5l19 24q14 20 53 68l74 86q106 125 163 209q82 121 97 197q14 70 -35 100q-43 25 -101.5 22.5t-117.5 -28.5q-27 -10 -47.5 -21.5t-42 -28t-33.5 -26.5l-41 -37q-29 -25 -47 -39q-18 -18 -45 -16 t-44.5 21.5t-15.5 46zM274 88q0 27 18.5 45.5t45.5 18.5t45 -18.5t18 -45.5t-18 -45t-45 -18t-45.5 18t-18.5 45z" />
<glyph unicode="@" horiz-adv-x="1908" d="M20 743q29 158 136 289q109 131 255 210t308 106q98 14 193.5 12t186.5 -35t165.5 -86t132 -141t84.5 -203q25 -92 12.5 -211t-61.5 -211q-57 -109 -152 -151q-109 -49 -242 0q-57 20 -92 63q-29 -27 -59 -43q-72 -31 -141.5 -21.5t-139.5 44.5q-98 49 -145 122l-82 -57 q-23 -16 -48.5 -11t-41 26.5t-10 47t25.5 39.5q86 59 131 97q2 6 4 10q10 23 27 49q27 41 65 88q-6 6 -8 10q-16 23 -11 48.5t26 39.5q74 51 135 70q63 18 147 10q94 -10 156 -61q12 39 16 61q4 25 25.5 40.5t47.5 10t41 -26.5t9 -48q-4 -29 -29 -115q-16 -55 -24 -86 q6 -31 4 -65q-4 -78 -37 -154q2 -25 10 -37q12 -20 43 -33q84 -31 144 -4q55 27 92 96.5t47 163.5t-8 170q-35 145 -129 236q-96 90 -220 117.5t-270 3.5q-219 -37 -390 -176.5t-206 -327.5q-25 -141 70 -275q84 -117 242 -182q160 -66 358 -76q190 -10 371 27 q184 37 311 109q23 12 48.5 4.5t37.5 -30t5 -48t-30 -37.5q-145 -80 -344 -121q-203 -41 -405 -31q-221 12 -406 88q-184 76 -290 224q-127 176 -91 372zM561 567q25 -51 103 -90q51 -25 98 -31t63 7q45 25 78 84v14q4 63 25 154l6 28q-8 25 -21 43q-25 33 -67 45 q-17 -8 -33 -6q-12 2 -29 4q0 2 -7 3t-11 3h-10l-4 -2q-4 -2 -13.5 -10t-19.5 -18q-37 -35 -78 -84v-2q12 -18 10 -42t-20 -40q-33 -31 -70 -60z" />
<glyph unicode="A" horiz-adv-x="1705" d="M-2 92q168 156 305 371t270 489q66 135 105 281q27 104 27 151q0 4 -3 7v2v14q2 10 11 20q13 15 34 15h3q6 0 12 -3t8 -5l4 -2q10 -6 14 -17q2 -2 5 -6q0 -2 1 -5t1 -7q2 -8 6 -23l14 -76l41 -227q63 -348 74 -375q25 -72 61 -149l37 6q45 6 75 9t50.5 4t44 0t35.5 -1 t51 -4t66 -6q16 -1 28 -15q10 -11 11 -25q-1 -3 -1 -6q-2 -17 -15 -29.5t-32 -10.5q-27 2 -63.5 6t-48.5 5t-33.5 2t-40.5 -1l-45 -6q-27 -2 -70 -8h-8q78 -145 191 -303l4 -4q2 -2 10 -8l14 -11q18 -14 27 -28q9 -15 9 -29q0 -16 -11 -33q-8 -12 -25 -16q-6 -2 -12 -2 t-10 2q-2 0 -6 2t-13 4l-34 16l-105 52l-172 86q-76 31 -229 77l-99 27l-28 8l-8 4h-3h-2h-2l-4 2q-33 20 -22 54q18 51 104 88q59 27 156 51q63 14 141 29q-31 68 -55 133q-14 43 -76 387l-22 119q-33 -123 -99 -259q-137 -281 -278.5 -501.5t-317.5 -382.5 q-12 -12 -28 -12l-1 1q-18 0 -30 12q-11 12 -11 28q0 19 13 32zM629 373l65 -19q158 -47 238 -82q16 -6 168 -82q-92 137 -158 263q-86 -14 -160 -31q-92 -20 -141 -45z" />
<glyph unicode="B" horiz-adv-x="1478" d="M4 1151q-2 17 -2 32q0 71 37 120q51 68 170 94q99 23 194 23q102 0 199 -27q190 -53 290 -147q91 -85 91 -189v-21q-6 -88 -77.5 -166.5t-194.5 -136.5q117 -39 207 -86q106 -53 165 -110q76 -74 76 -152v-8q-4 -115 -115 -199q-86 -68 -233 -112q-123 -36 -256 -52 q-88 -10 -156 -11q-35 0 -65 3q-43 2 -72 10q-2 -20 -8 -32q-8 -16 -27 -25q-8 -3 -16 -3q-16 0 -31 13q-24 21 -24 57q0 11 2 23q2 6 2 12l-4 2q-14 6 -20.5 22.5t0.5 33t24 20.5q-23 118 -23 172v8l15 -124v4q-2 43 -7 155q-5 81 -5 173q0 69 3 145q-18 109 -43 188 q-8 18 -16 42t-19.5 52.5t-19.5 44.5q-35 94 -41 152zM88 1161q4 -49 37 -131l29 -76l2 13q0 27 -6 151q-1 23 -1 44q0 73 11 124q2 4 2 8q-37 -18 -56 -43q-20 -26 -20 -66q0 -12 2 -24zM166 283q8 4 14 6v33q-6 -12 -14 -39zM221 1313q29 -14 21 -47q-10 -42 -10 -108 q0 -16 1 -34q5 -112 5 -150v-11q-6 -150 -9 -215q8 31 39 45q18 10 47 12q18 3 40 3q30 0 67 -5q84 -10 162 -31q150 51 230.5 125t86.5 145v11q1 70 -71 138q-78 73 -252 120q-86 25 -177 25q-84 0 -172 -21zM227 678l4 -33q33 -190 35 -442q2 -72 2 -101q25 -10 74 -14 q23 -2 50 -2q65 0 154 10q126 14 240 49q133 41 207 99q84 64 84 140q0 44 -51 91q-51 49 -147 98q-129 66 -293 113v-2q-66 -20 -193 -20h-23q-45 0 -75 6q-27 6 -43 18q-23 16 -25 41v-51z" />
<glyph unicode="C" horiz-adv-x="1585" d="M59 340q-3 21 -3 63q0 63 7 172q18 274 162 474q143 199 393 325q82 40 146 60q58 18 123 18h14q74 -2 158 -31q14 -6 22.5 -21.5t2 -30.5t-22 -23.5t-31.5 -2.5q-86 27 -151 27q-18 0 -35 -2q-76 -10 -189 -68q-479 -246 -510 -729q-6 -108 -6 -168q0 -36 2 -55 q12 -115 82 -168q117 -87 401 -87q35 0 72 1q248 10 521 70q16 2 30.5 -7.5t17.5 -25.5q1 -4 1 -8q0 -13 -8 -23q-10 -14 -25 -18q-279 -59 -535 -70q-39 -1 -76 -1q-309 0 -448 104q-98 74 -115 225z" />
<glyph unicode="D" horiz-adv-x="1579" d="M-151 1354q0 3 1 6q0 12 9 22q23 31 67 33q29 0 68 -10q61 -14 153 -59l70 -33q-4 33 -10 65q-4 18 7 34q12 16 30 20q5 1 10 1q14 -1 24 -9q16 -12 19 -29q12 -63 18 -135l72 -39l156 -86l207 -113q80 -45 188.5 -118t175.5 -138q147 -139 148 -269q0 -27 -7 -53 q-43 -174 -370 -303q-121 -47 -303 -86q-207 -44 -385 -44q-70 0 -136 7q-18 2 -30.5 16.5t-10 33t16.5 31t33 10.5q60 -6 125 -7q166 0 366 43q178 39 291 82q283 111 313 240q4 15 4 31q0 89 -118 202q-66 61 -166 131q-102 68 -180 111l-203 111l-160 86l-20 12 q1 -20 1 -42q1 -49 -3 -107q-4 -84 -7.5 -128.5t-13.5 -154t-12 -125.5q-4 -49 -15.5 -142.5t-15.5 -138.5q0 -8 6 -84q4 -31 2 -45q-2 -10 -6 -18q-14 -27 -45 -25q-18 0 -33 15q-6 4 -10 12q-53 84 -78 244q-2 8 -16 125q-10 70 -21 110q-14 63 -118 404l-62 200l-18 66 q-4 14 -7 22zM-51 1321l14 -43l62 -201q102 -336 120 -409q10 -45 21 -119q0 -8 5 -45t9 -55q12 104 17 153q2 29 10 120t10 122l8 119q5 69 5 103q0 10 -1 18q-2 30 -2 120q-63 35 -118 60q-86 41 -138 53q-12 4 -22 4z" />
<glyph unicode="E" horiz-adv-x="1517" d="M-53 1341q-1 5 -1 10t1 11q6 25 28 35q21 12 49 12q15 0 33 -4l21 -4l16 -4h10q72 -4 107 -4q33 0 130 -2t138 -2l127 -5q86 -2 139 -6l127 -10q74 -6 139.5 -16.5t131.5 -22.5q20 -6 32.5 -23.5t7.5 -38t-22.5 -32.5t-38.5 -8q-137 27 -288 41q-160 14 -252.5 16 t-294.5 4q21 -88 20 -211q0 -134 -24 -309q152 19 284 19q246 0 424 -66q18 -6 27.5 -25.5t2.5 -39t-26.5 -29t-40.5 -0.5q-146 53 -334 59q-33 1 -66 1q-151 0 -288 -23q-12 -96 -18 -152q-14 -143 -19 -315v-21q68 0 387 2h68q300 0 469 -16q19 -2 33 -18q12 -14 12 -33 v-5q-2 -22 -18.5 -35.5t-38.5 -11.5q-169 17 -489 17h-36q-315 -2 -385 -2v-8l2 -17v-6v-2v-4q-2 -4 -2 -6q-2 -10 -8 -19q-10 -16 -30 -22q-5 -1 -10 -1q-17 0 -31 11q-16 12 -17 20l-4 9v4q0 2 -2 6l-2 20l-2 17q-20 2 -41 2t-35 16.5t-14 37t16.5 34.5t36.5 14 q12 0 25 -2l-62 475q-10 10 -14 27q-2 19 6 33l-37 309q0 12 -10 104q-4 59 -12 99q-4 25 -21 67q-10 25 -12 31q-4 10 -4 18zM70 1298q10 -31 16 -57q6 -41 12 -106q8 -92 11 -101l34 -286l33 6q16 116 24 186q7 57 7 131v36q-2 97 -23 175q-2 4 -2 8q-29 2 -82 4 q-12 0 -30 4zM156 647l2 -22l4 22h-6z" />
<glyph unicode="F" horiz-adv-x="1503" d="M-53 1341q-1 5 -1 10t1 11q6 25 28 35q21 12 49 12q15 0 33 -4l21 -4l16 -4h10q72 -4 107 -4q33 0 130 -2t138 -2l127 -5q86 -2 139 -6l127 -10q74 -6 139.5 -16.5t131.5 -22.5q21 -5 33 -23q9 -12 8 -27q0 -5 -1 -11q-5 -20 -22.5 -32.5t-38.5 -8.5q-137 27 -288 41 q-160 14 -252.5 16t-294.5 4q21 -88 20 -211q0 -134 -24 -309q152 19 284 19q246 0 424 -66q18 -6 27.5 -25.5t2.5 -39t-26.5 -29t-40.5 -0.5q-146 53 -334 59q-33 1 -66 1q-151 0 -288 -23q-12 -96 -18 -152q-14 -143 -19 -315q-1 -20 -1 -41q0 -42 3 -90l2 -17v-6v-2v-4 q-2 -4 -2 -6q-2 -10 -8 -19q-10 -16 -30 -22q-5 -1 -10 -1q-17 0 -31 11q-16 12 -17 20l-4 9v4q0 2 -2 6l-2 20l-76 594q-10 10 -14 27q-2 19 6 33l-37 309q0 12 -10 104q-4 59 -12 99q-4 25 -21 67q-10 25 -12 31q-4 10 -4 18zM70 1298q10 -31 16 -57q6 -41 12 -106 q8 -92 11 -101l34 -286l33 6q16 116 24 186q7 57 7 131v36q-2 97 -23 175q-2 4 -2 8q-29 2 -82 4q-12 0 -30 4zM156 647l2 -22l4 22h-6z" />
<glyph unicode="G" horiz-adv-x="1562" d="M-6 374q-9 54 -9 109q0 63 11 127q20 119 80 221q160 274 411 437q256 162 566 182h5q20 0 33 -12q15 -15 17 -36.5t-12.5 -36.5t-34.5 -17q-285 -18 -518.5 -166t-376.5 -400q-72 -125 -80 -258q-1 -18 -1 -36q0 -114 55 -210q65 -112 200 -155q124 -41 250 -41 q56 0 112 8q92 12 244 74q80 33 131 65q51 31 60 52q4 8 4 14l-4 4q-4 2 -11.5 6t-15.5 10q-102 72 -247.5 72t-260.5 -59q-18 -10 -38.5 -3t-30 25.5t-2 39t25.5 28.5q92 47 197 64q48 8 98 8q58 0 119 -11q111 -18 196 -78q51 -35 62 -49q16 -22 16 -51q0 -28 -14 -61 q-20 -49 -98 -99q-59 -35 -148 -71q-166 -68 -270 -82q-62 -9 -124 -9q-142 0 -284 46q-133 43 -214 138t-99 211z" />
<glyph unicode="H" horiz-adv-x="1390" d="M-10 510v16v9q0 12 6 22q23 41 76 53q14 131 20 202q6 70 8 184v25q0 99 -14 180q-16 91 -53 169q-8 18 -1 38q6 18 26 28q11 5 22 6l18 -4q20 -8 29 -27q39 -85 59 -185q18 -90 17 -197v-23q-2 -120 -7.5 -193.5t-19.5 -200.5q23 -2 53 -8q45 -8 47 -8q109 -12 369 -16 q162 -2 246 -7q2 39 9 333t7 448q0 20 15.5 35.5t36 15.5t36 -15.5t15.5 -35.5q0 -156 -7.5 -447t-9.5 -342l33 -4q23 -5 35 -21q10 -13 10 -29q0 -5 -1 -9q-3 -22 -19.5 -33.5t-36.5 -9.5q-10 2 -23 4v-91q0 -179 6 -327q0 -20 -14 -36.5t-34.5 -16.5t-37 14t-16.5 35 q-6 150 -6 335v95q-82 4 -244 6q-268 4 -381 17q-4 0 -53 10q-27 4 -47 6q-20 -180 -25 -268q-1 -12 -1 -29q0 -35 3 -92v-21v-20q-2 -6 -4 -10q-10 -27 -39 -31q-31 -6 -49 20l-8 13q0 4 -2 12q-2 6 -4 22q-8 70 -27 216q-10 88 -14 139q-2 31 -4 49z" />
<glyph unicode="I" horiz-adv-x="645" d="M197 1413v5q0 16 11 32q14 18 34 20q3 0 6 1q18 0 32 -12q18 -14 19 -34q12 -113 12 -282v-49q-2 -301 -2 -324q2 -61 7.5 -172t7.5 -149q3 -83 3 -155q0 -96 -5 -173q-2 -21 -18 -35q-14 -13 -31 -12h-5q-22 2 -36.5 17t-12.5 38q5 74 5 166q0 69 -3 149q-2 39 -8 150 q-4 94 -6 172q-1 10 -1 50q0 80 3 280v48q0 162 -12 269z" />
<glyph unicode="J" horiz-adv-x="1064" d="M6 96.5q0 20.5 15.5 35.5t35.5 15q29 0 82.5 -1t84.5 -2h11q26 0 60 4q41 4 76 12q166 43 229 153q43 77 43 196q0 27 -2 56q-12 121 -79.5 346.5t-74.5 257.5q-18 76 -18 246q0 20 15.5 35.5t36 15.5t35.5 -15.5t15 -35.5q0 -158 15 -221q2 -8 73.5 -251t81.5 -370 q4 -38 4 -73q0 -140 -57 -238q-84 -147 -293 -201q-41 -10 -88 -16q-39 -3 -69 -3h-15q-35 1 -89 2t-77 1q-20 0 -35.5 15.5t-15.5 36z" />
<glyph unicode="K" horiz-adv-x="1349" d="M20 127v8v8q0 8 3 23q2 10 5 34.5t5 43t2 30.5q2 18 4 77t6 91q4 51 12 88q35 368 35 637q0 156 -12 279q-2 20 11 36.5t35 18.5h5q19 0 33 -11q16 -13 18 -36q13 -137 13 -300q0 -197 -19 -431l12 -4q12 8 37 21.5t35 19.5q106 68 244 215l71 78l93 98q37 39 73 72 l47 43q-10 35 21 55q59 39 72 45q31 18 51 25q16 8 29 8q33 4 53 -19q8 -10 12 -20q5 -10 5 -21q0 -8 -3 -16q-4 -16 -16 -27q-6 -6 -19 -12q-10 -4 -16 -8q-66 -35 -166 -127l-74 -72l-88 -94l-69 -78q-147 -158 -267 -231l-18 -12q195 -111 395.5 -272t300.5 -298 q12 -18 9 -38q-3 -22 -20 -34q-14 -10 -30 -10q-4 0 -8 1q-20 3 -33 20q-100 137 -310 301t-400 266q-10 -10 -17 -25q-14 -23 -22 -59l-10 -98q-2 -20 -7 -127q-2 -86 -14 -137q-4 -20 -6 -28.5t-4 -12.5q-2 -8 -10 -17q-20 -20 -48 -14q-25 4 -36 29q-4 8 -5 18z" />
<glyph unicode="L" horiz-adv-x="1458" d="M4 299q-14 62 -14 147q0 107 22 250q12 76 40 217.5t36 200.5q21 119 21 198q0 61 -13 97q-6 20 4 39q10 18 30 26q9 3 17 3q11 1 21 -5q18 -10 27 -30q16 -49 17 -128q0 -89 -22 -216q-10 -59 -37.5 -200.5t-39.5 -215.5q-21 -135 -21 -233q0 -74 12 -125 q31 -141 158 -168q23 -4 106 -4h62q66 0 207 12q127 8 197 10q6 2 14 2h239q20 0 36 -15.5t16 -36t-15.5 -35.5t-36.5 -15h-219q-6 -2 -14 -2q-72 0 -209 -11q-164 -12 -215 -12h-46q-108 0 -142 8q-190 39 -238 242z" />
<glyph unicode="M" horiz-adv-x="1511" d="M-125 1292v4v4v5q0 12 9.5 26.5t25.5 20.5q6 2 14 4q10 2 25 2q23 2 61 0q61 -4 172 -15l180 -18q88 -8 107 -8q36 -1 70 -1q198 0 313 30q80 20 125 45l6 6q4 2 10 9t11 9q16 18 32 25q13 5 26 5q25 0 46 -22q33 -33 37 -98q0 -12 1 -34.5t3 -35.5q33 -182 41 -364 q4 -97 4 -225q0 -112 -3 -246q-7 -289 -7 -359q0 -20 -15.5 -35.5t-36 -15.5t-36 15.5t-15.5 35.5q0 104 5 294q4 191 5 307v20q1 110 -9 257q-10 161 -35 300q-3 17 -5 74q-8 -8 -16 -13q-57 -29 -149 -53q-126 -34 -343 -34q-33 0 -69 1q-20 0 -113 11l-65 6q5 -61 5 -142 q0 -131 -12 -314q-20 -296 -20 -334t-4 -117.5t-4 -122.5v-46q0 -64 4 -100q2 -6 3 -13t1 -15q0 -4 -2 -11q-4 -16 -18 -26q-15 -11 -31 -11q-14 0 -29 9q-8 6 -14 14l-8 16q0 4 -2 11v2q-33 61 -50.5 137t-27.5 175t-17 128q-16 92 -65 266q-55 184 -74 275l-24 143l-15 96 l-6 31q0 6 -2 10zM-14 1255l14 -81q23 -129 25 -142q18 -90 69 -266q48 -168 66 -260q4 74 12 188.5t12 183t6 180.5q0 21 1 41q0 85 -9 142h-8q-111 10 -168 14h-20z" />
<glyph unicode="N" horiz-adv-x="1507" d="M-18 1444q27 37 71 37q31 0 66 -21q16 -8 33 -22q8 6 18 10q18 8 37.5 0t28.5 -29q23 -53 36 -110q47 -61 84 -119q82 -129 217 -404q129 -262 215 -393q55 -84 103 -135q39 -39 65 -55q15 -6 23 -6q16 10 35 51q20 47 37 127q29 150 34 379q1 45 1 89q0 155 -11 302 q-14 188 -37 252q-6 18 3.5 37.5t29 26.5t38.5 -2t28 -29q27 -76 41 -272q11 -153 11 -315q0 -46 -1 -93q-6 -236 -37 -394q-18 -92 -43 -149q-33 -74 -80 -101q-24 -14 -51 -14q-33 0 -70 21q-41 25 -90 75q-57 59 -115 148q-86 135 -221 405q-121 240 -172 330 q2 -41 2 -86q0 -217 -55 -539q-6 -33 -29 -141q-18 -82 -24 -133q-2 -20 -4 -49v-35v-35v-4v-6q0 -2 -2 -6q-2 -8 -9 -19q-14 -20 -39.5 -20t-42.5 20l-8 17l-2 12v6v31v49q0 647 -39 989q-12 111 -43 191q-2 2 -3 4t-7 10l-14 16q-23 30 -23 58q0 22 15 43zM115 1333 q31 -86 45 -198q22 -195 30 -433q19 151 19 280q0 158 -29 280q-18 20 -33 38q-16 18 -32 33z" />
<glyph unicode="O" horiz-adv-x="1527" d="M16 297q-45 112 -45 237q0 134 52 283q47 133 131 250t195.5 206t256.5 132q105 33 218 33q40 0 81 -4q20 -2 33.5 -20t11.5 -38q135 -55 203 -237q51 -143 55 -338v-15q0 -159 -41 -317q-45 -164 -135 -291q-102 -141 -250 -203q-86 -35 -187 -35q-74 0 -155 19 q-317 74 -424 338zM111 336q88 -217 354 -279q67 -15 127 -15q217 0 358 196q78 109 119 258q37 145 37 290v15q-2 176 -49 303q-59 162 -178 188q-33 7 -65 7q-42 0 -84 -12q-73 -21 -183 -77q-18 -10 -39 -4t-29 27q-2 2 -2 4q-123 -76 -216 -194.5t-142 -258.5 q-45 -132 -45 -249q0 -106 37 -199z" />
<glyph unicode="P" horiz-adv-x="1402" d="M-125 1272q2 27 12 43q37 53 152 78q39 8 111 16q8 6 16 10q19 6 37 -2q95 15 157 21q47 5 112 5q20 0 41 -1q91 -2 165 -23q55 -14 139 -57t150 -94q86 -70 108 -142q9 -28 9 -54q0 -65 -58 -122q-16 -16 -42 -32.5t-46 -26.5t-54 -23.5t-49.5 -17.5t-51 -15.5 t-38.5 -13.5q-100 -31 -215 -45q-84 -10 -286 -22q2 -119 18 -308q0 -6 4 -34l10 -76q6 -45 11 -84q10 -78 14 -125q2 -31 2 -49v-19q-2 -16 -8 -26q-2 -6 -6 -13q-14 -16 -35 -20h-8q-27 0 -43 25q-6 8 -8 18t-2 29v37q-4 16 -15 45q-12 37 -16 51q-18 66 -35 133 q-14 70 -31 129l-26 82l-52 158q-31 96 -53 174q-49 162 -71 256q-12 59 -17 96q-2 23 -2 39zM-23 1245q4 -29 17 -84q23 -96 69 -250l29 -96q10 33 45 35h4q2 49 7.5 120.5t9.5 119.5q3 32 3 70q0 18 -1 38q-2 59 -13 109q-51 -6 -88 -15q-55 -12 -82 -30v-17zM111 758 l34 -107q-4 51 -4 97q-16 0 -30 10zM201 68v2v-2zM244 856q186 12 274 23q106 12 195 41q8 2 37.5 11t41 13t37 12.5t39.5 14.5l33 16q18 8 31.5 17.5t23.5 19.5q26 26 26 52q0 9 -3 18q-14 43 -78 94q-55 45 -131 82q-74 39 -121 51q-68 18 -168 18.5t-233 -18.5 q12 -55 14 -121q1 -27 1 -51q0 -35 -2 -65q-3 -50 -9 -120.5t-8 -107.5z" />
<glyph unicode="Q" horiz-adv-x="1658" d="M-18 420q-10 54 -10 109q0 166 91 352q74 145 186.5 263t260.5 188q120 55 239 55q29 0 58 -3q12 1 25 1l49 -3q186 -23 331 -196q100 -121 121 -221q8 -45 8 -90q0 -124 -61 -255q-84 -180 -238 -323l148 -168q14 -16 12 -36.5t-18.5 -35t-37 -12.5t-34.5 18l-147 166 q-102 -80 -214 -129t-233 -62q-27 -3 -54 -3q-91 0 -175 35q-258 100 -307 350zM84 438q37 -195 242 -274q71 -24 147 -24q66 0 135 18q148 39 289 149l-176 203q-14 16 -13 37.5t16 35t36.5 12.5t34.5 -15l180 -205q139 129 209 283q53 116 53 218q0 35 -6 68 q-12 76 -96 176q-121 143 -267 160q-6 2 -14 2q-14 -6 -29 -4q-10 2 -22 4q-111 -8 -242 -82q-14 -8 -27 -8q-18 0 -34 18q-104 -59 -194.5 -158.5t-149.5 -215.5q-81 -162 -81 -304q0 -48 9 -94z" />
<glyph unicode="R" horiz-adv-x="1531" d="M-31 1212q16 70 45 101q61 68 232 73q21 1 42 1q128 0 281 -31q180 -37 310 -101q156 -78 184 -178q11 -38 11 -72q0 -104 -97 -184q-88 -72 -234 -108q-43 -12 -114 -21q6 -6 12 -10l96 -72l111 -82q39 -29 101.5 -82t104.5 -97t85 -101.5t69 -112.5q4 -11 4 -21 q0 -8 -3 -18q-7 -20 -27 -30q-11 -5 -21 -5l-17 3q-20 8 -30 26q-23 51 -60.5 101.5t-74.5 88t-96.5 88t-96.5 78.5l-106 80l-100 74q-8 6 -16.5 10t-18.5 13l-23 12q-51 31 -69 70q-14 27 2 51q8 10 16 14q6 4 12 6q2 0 4 2h5h6l18 2q35 4 62 8q94 10 141 23q123 31 192 88 q60 50 60 111q0 19 -6 39q-16 57 -133 115.5t-283 90.5q-142 30 -259 30q-20 0 -40 -1q-127 -4 -162 -41q-8 -10 -20 -55q-1 -7 -1 -17q0 -36 15 -118q18 -92 57 -236l74 -248q45 -150 49 -159q2 -4 6 -27q2 20 2 43q1 37 1 93q0 113 -3 304q-2 116 -2 204q0 131 4 198 q2 23 17.5 37t37 12t36 -17.5t12.5 -35.5q-5 -82 -5 -199q0 -88 3 -197q3 -193 3 -308q0 -57 -1 -95q-2 -102 -8 -203q0 -8 3 -29.5t3 -37.5q4 -33 -4 -52q-8 -27 -32 -37q-12 -5 -24.5 -5t-25.5 5q-16 6 -29 23q-4 6 -8 16q-6 12 -15 35q-12 35 -28 96l-19 64l-16 57 q-6 23 -6 27q-4 10 -49 160l-74 250q-41 145 -59 243q-17 86 -17 137q0 24 4 41zM543 750q1 1 2 1q2 0 4 -3q-1 4 -3 4q-1 0 -3 -2z" />
<glyph unicode="S" horiz-adv-x="1380" d="M-26 92q3 22 20.5 32.5t38.5 8.5q67 -13 150 -13q130 0 300 32q131 25 254 59q98 29 129 41q70 29 92 61v4v11v16v11q0 149 -202 307q-156 121 -375 215q-12 6 -53 18l-76 29q-109 43 -141 94q-23 36 -23 72q0 21 8 43q18 45 74 79q80 53 242 95q129 31 271 47 q114 13 173 13q15 0 27 -1q20 -2 34.5 -18.5t12.5 -37t-19 -34.5t-37 -12q-10 1 -24 1q-52 0 -158 -12q-129 -16 -256 -47q-147 -37 -209 -78q-29 -18 -34 -34q-4 -8 4 -23q14 -23 92 -53l71 -25l62 -22q233 -100 397 -228q242 -191 242 -387v-16v-12v-19q-2 -29 -17 -51 q-39 -59 -137 -100q-35 -14 -141 -45q-133 -39 -266 -64q-179 -31 -319 -31q-91 0 -165 13q-23 3 -34 21q-9 14 -9 30q0 5 1 10z" />
<glyph unicode="T" horiz-adv-x="1767" d="M-158 1268q0 29 23 45q29 23 98 33q49 8 125 12q49 4 121 6t84 2q63 4 254.5 20.5t302.5 22.5q89 4 168 4q249 0 393 -43q21 -6 31 -24q7 -12 6 -25q0 -7 -2 -15q-6 -20 -24.5 -30t-39.5 -4q-131 40 -361 40q-78 0 -167 -5q-111 -6 -301.5 -22.5t-255.5 -20.5 q-10 0 -83 -2t-120 -5q-29 -2 -51 -4q31 -25 78 -79q78 -90 143 -191q68 -104 133.5 -235.5t100.5 -206.5l102 -232l12 -30v38q0 53 11 336q4 94 4 169q0 95 -6 161q-2 20 12 36.5t34.5 18.5t37 -12.5t18.5 -34.5q6 -71 6 -168q0 -78 -4 -172q-10 -283 -10 -334 q0 -55 14 -217l2 -4q6 -18 6 -20q6 -20 2 -37q-2 -20 -16 -33q-16 -14 -39 -16h-5q-17 0 -34 12q-8 6 -14 16q-10 12 -23 33q-18 31 -43 84l-59 133l-100 230l-99 202q-63 127 -127 226q-63 94 -137 182q-35 41 -57 59q-23 20 -62 39q-2 2 -4 2q-4 0 -10 1t-8 1 q-20 4 -31 11q-29 16 -29 47z" />
<glyph unicode="U" horiz-adv-x="1519" d="M16 834q0 84 21 466q1 24 17 38q14 13 32 12h6q22 -2 35.5 -18t11.5 -36q-20 -381 -20 -462q2 -283 63 -418t162 -211q98 -79 211 -89q17 -2 35 -1q94 1 188 49q110 58 195 182q37 53 62.5 112.5t37.5 131.5q11 72 19 126q6 43 6 107v36q-2 89 -4 134t-10.5 148.5 t-10.5 136.5q-2 23 12.5 38t36 17t37 -12t17.5 -35q2 -33 10 -133t10 -149.5t4 -142.5v-36q0 -69 -6 -119q-8 -62 -23 -141.5t-43 -147t-69 -128.5q-99 -147 -235 -217q-116 -60 -237 -60q-21 0 -42 2q-141 14 -262 107.5t-195 253.5q-70 152 -72 459z" />
<glyph unicode="V" horiz-adv-x="1609" d="M22 1375q-1 5 -1 9q-1 16 9 30q12 16 34 18.5t38 -9.5q106 -80 187 -313q20 -61 53 -184q33 -121 43 -152q53 -174 162 -373q78 -143 110 -194l29 -47q25 197 66 346q43 154 73 248q33 98 87.5 232t127 243.5t164.5 197.5q14 15 36 15h1q21 0 35 -16t14 -37t-16 -35 q-84 -80 -150.5 -181.5t-118 -226.5t-83.5 -223q-29 -92 -72 -246q-41 -147 -66 -352v-12v-25q-2 -54 -38 -76q-16 -10 -32 -10q-21 0 -42 16q-16 12 -35 35q-29 35 -68 101q-37 59 -112 198q-111 205 -170 389q-10 35 -43 158q-31 113 -54 178q-68 205 -149 264 q-15 12 -19 34z" />
<glyph unicode="W" horiz-adv-x="1837" d="M-30 1327q2 21 20 33t38.5 9t32.5 -19q109 -152 187 -486q25 -109 59.5 -304t36.5 -200q0 -8 4 -32.5t6 -34.5q8 -49 17 -82q12 -41 26 -57l9 -9l2 2q10 12 24 39q25 49 55 140q20 66 46 156.5t28 95.5l62 167q-37 203 -77 351.5t-108 283.5q-10 18 -3 39t25 30 q10 5 22 5q10 0 18 -3q20 -7 28 -26q98 -197 162 -495l4 8q90 227 205 418q10 18 30.5 23t39 -6t23.5 -31.5t-7 -38.5q-109 -182 -197 -402l-61 -164q49 -270 66 -348q27 -121 51 -186q25 -61 45 -88q4 -4 8 -6q12 12 31 49q25 45 49 118q20 53 43.5 131t26.5 87 q16 43 73.5 216t87 253.5t91 211t124.5 222.5q12 18 34 21t39 -8q16 -10 20 -32q1 -5 1 -11q0 -15 -8 -28q-61 -88 -118.5 -210.5t-87 -200.5t-86.5 -248l-72 -219q-4 -8 -27.5 -87t-42.5 -132q-29 -80 -55 -131q-37 -72 -76 -95q-23 -12 -48 -12q-15 0 -30 4q-29 10 -55 41 q-33 39 -63 119q-27 72 -54 201q-18 76 -37 174q0 -4 -25.5 -95.5t-47.5 -152.5q-33 -98 -62 -154q-18 -37 -35 -59q-29 -35 -63 -39q-8 -1 -16 -1q-51 0 -89 46q-29 33 -45 92q-12 39 -22 96q-2 10 -5 33t-5 31q0 8 -35 201q-35 188 -60 299q-72 317 -167 448 q-10 15 -10 32v7z" />
<glyph unicode="X" horiz-adv-x="1585" d="M0 174q18 45 68 117q39 55 135 168l282 317q-43 47 -123.5 144.5t-93.5 113.5q-133 156 -243 226q-17 10 -23 32q-2 7 -2 13q0 13 7 25q11 18 32.5 23t38.5 -7q125 -78 268 -246l92 -113l117 -137q319 330 629 565q13 10 29 10q5 0 9 -1q22 -3 34 -19q10 -13 10 -29 q0 -4 -1 -8q-3 -22 -20 -35q-305 -231 -618 -557l501 -510q14 -16 14.5 -36.5t-15 -36t-36 -15.5t-36.5 15l-498 509l-276 -309q-94 -111 -129 -162q-41 -57 -56 -92q12 2 19 2q23 0 38 -14t15 -35.5t-14.5 -37t-34.5 -15.5h-4q-2 0 -8.5 -2t-14.5 -2q-12 -2 -23 -2 q-24 0 -42 12q-39 25 -39 71q0 26 12 58z" />
<glyph unicode="Y" horiz-adv-x="1533" d="M-26 1394q3 21 20 34q14 9 30 9q4 0 9 -1q21 -3 33 -19q20 -27 49 -82l82 -168l67 -145q70 -139 113 -209q18 -33 35 -53q8 35 43 39q18 2 33.5 -8.5t21.5 -28.5q31 16 68 45q82 63 198 192q49 55 125 148l133 160q57 68 94 102q16 14 38 12t36 -17q13 -13 13 -30 q0 -3 -1 -6q-2 -22 -16 -37q-35 -31 -88 -94l-127 -152l-131 -153q-119 -135 -213 -207q-61 -47 -115 -70q9 -80 9 -150q0 -61 -7 -114q-8 -72 -26 -168q-18 -100 -28 -180q-9 -67 -9 -136v-26q0 -23 -14.5 -38t-36 -15t-37 14.5t-15.5 34.5v26q0 75 10 150 q11 88 29.5 190.5t24.5 159.5q6 45 6 99q0 62 -8 135h-4q-37 4 -74 45q-25 27 -55 76q-45 76 -117 219l-72 149q-49 106 -74.5 156.5t-41.5 73.5q-10 15 -10 32v6z" />
<glyph unicode="Z" horiz-adv-x="1488" d="M48 1317q16 14 36 12q21 -4 58 -4q18 0 42 1q70 3 105 5t107.5 9.5t111.5 9.5q68 5 129 5q192 0 315 -48q80 -31 121 -54q43 -27 66 -53q31 -38 31 -79q0 -8 -1 -15q-12 -88 -125 -160q-31 -20 -81 -45q-59 -29 -66 -33q-80 -43 -225 -139q-143 -92 -273 -199 q-166 -137 -231 -235q-38 -60 -38 -101q0 -28 17 -47q25 -27 123 -32q35 -4 88 -4h74q227 -8 277 -15q25 -4 89 -12t95 -11t80 -7.5t92 -4.5q20 0 35.5 -15t15.5 -35.5t-15.5 -36t-35.5 -15.5q-45 0 -98.5 4t-86 7t-98 12.5t-86.5 11.5q-45 6 -268 14h-70q-57 0 -96 4 q-137 10 -188 66q-48 51 -48 116q0 70 56 156q76 117 252 260q133 109 282.5 206t231.5 142q6 4 70 35q45 23 71 41q72 45 78 88q2 2 -6 11q-12 16 -41 32q-31 18 -105 47q-105 40 -276 40q-58 0 -123 -5q-35 -2 -109.5 -9t-110.5 -9t-110 -5q-25 -1 -46 -1q-41 0 -64 4 q-20 3 -34 19q-13 14 -13 32q0 23 19 39z" />
<glyph unicode="[" d="M-23 -262q0 2 1.5 5t1.5 9l6 25l16 69q23 100 23 125q0 41 -1 156t0 195.5t5 156.5q6 84 25.5 262.5t25.5 272.5q0 14 -2 67q-4 106 -4 109q-2 70 0 108q2 27 6 45q6 35 24 54q20 20 62 28q25 4 61 7q59 2 150 -2q156 -10 250 -25q27 -4 42 -25.5t11 -48t-25.5 -42 t-48.5 -11.5q-86 14 -235 25q-86 4 -138 2q-18 0 -32 -2v-11q-2 -35 0 -98q0 -10 4 -107q4 -61 2 -81q-6 -94 -27 -273q-18 -172 -24 -262q-6 -80 -9 -156q0 -78 2.5 -188.5t2.5 -155.5q0 -39 -27 -153l-12 -62q10 -2 22 -4q53 -12 154 -14q84 -2 121 -2q45 0 103 1t71 1 q27 0 45 -18.5t18 -45t-18.5 -45t-44.5 -18.5q-10 0 -70.5 -1t-108 -1t-120.5 2q-109 4 -174 16q-43 8 -70 21q-47 23 -59 61z" />
<glyph unicode="\" horiz-adv-x="1351" d="M-20 1486q6 25 28.5 38.5t48 7.5t37.5 -29q57 -92 189 -272q135 -186 194 -283q104 -174 283.5 -509t263.5 -478q12 -25 6 -49.5t-29.5 -37.5t-48 -7t-39.5 29q-84 143 -262 478t-284 509q-53 92 -187 272q-135 184 -192 283q-14 23 -8 48z" />
<glyph unicode="]" horiz-adv-x="1054" d="M-50 -377.5q-5 25.5 10 47t42 27.5q27 4 137 14l221 19q139 12 207 20q20 2 37 4v2q-6 45 -18 127q-4 37 -13 88l-10 82q-4 29 -6 35q-53 455 -10 956q10 123 12 160q4 59 2 94v9q-18 2 -45 6q-61 6 -178 10q-293 10 -326 18q-27 4 -41 27t-9 48.5t27.5 39.5t47.5 8 q25 -4 307 -14q125 -4 184 -10l70 -10q45 -10 66 -33q16 -18 22 -54q2 -16 2 -43q2 -39 -2 -102q-2 -47 -12 -166q-43 -492 10 -928q0 -6 4 -34l12 -82q6 -49 13 -88l16 -129q4 -29 4 -43q2 -10 2 -17v-6v-2v-10q-2 -14 -10 -25q-6 -10 -14.5 -16t-14.5 -8l-4 -2 q-6 -2 -14 -4.5t-25 -4.5q-25 -4 -71 -10l-209 -18l-221 -21q-106 -10 -129 -14q-25 -4 -46.5 11.5t-26.5 41z" />
<glyph unicode="^" horiz-adv-x="1325" d="M31 654.5q-2 25.5 16 45.5q256 285 402 514q2 4 65 123l43 80l14 27q4 4 6.5 8t4.5 6t4 6q10 12 26 17q45 16 74 -7.5t43 -52.5q16 -35 27 -98q6 -39 12 -96v-10q0 -6 1 -13.5t1 -9.5v-12q49 -266 227 -596q12 -25 5 -49.5t-30.5 -37t-48 -5t-36.5 29.5 q-188 348 -240 633q-2 8 -4 27v8q0 6 -1 12t-1 13q-4 43 -8 73l-6 -12q-66 -121 -72 -129q-160 -258 -414 -535q-18 -18 -43.5 -20t-45 16.5t-21.5 44z" />
<glyph unicode="_" horiz-adv-x="1437" d="M-106.5 -94.5q2.5 26.5 21.5 44t46 15.5q121 -8 547 -8q344 0 555 -31q27 -4 43 -25.5t12 -47t-25.5 -42t-45.5 -12.5q-203 31 -541 31q-428 0 -553 8q-27 2 -44.5 21.5t-15 46z" />
<glyph unicode="`" horiz-adv-x="858" d="M-6 1483.5q-2 25.5 15.5 46t43 22.5t45.5 -14q244 -207 428 -473q16 -23 11 -48.5t-26.5 -40.5t-47 -10t-39.5 25q-180 258 -408 449q-20 18 -22 43.5z" />
<glyph unicode="a" horiz-adv-x="1214" d="M-113 88q117 113 212.5 267.5t193.5 357.5q31 66 43 98q10 31 29 104q20 78 20 109q-2 6 -2 12q0 8 4 17q8 18 31 22q5 1 9 1q12 0 24 -7q4 -4 8 -10l2 -2q4 -4 6 -10q2 -4 4 -11q2 -8 4 -18q6 -20 12 -57l29 -166q43 -250 49 -271q18 -49 43 -102l17 2q94 14 123 14 q16 -2 43 -4q66 -8 67 -8q18 0 28 -14q10 -13 10 -29v-3q-1 -18 -15.5 -28t-30.5 -8q-2 0 -68 6q-25 4 -37 4q-20 0 -98 -12q53 -98 129 -203q0 -2 1 -2t2 -1t6.5 -5t9.5 -8q14 -12 22 -25q14 -29 -4 -55q-6 -8 -15.5 -12t-14.5 -5t-5 1h-10q-2 0 -4 2q-2 0 -4 2q-4 0 -8 2 l-27 12l-74 39l-123 59l-47 21q-18 8 -36.5 14t-28.5 10l-39 11q-27 8 -47 12q0 2 -11 2q-20 0 -22 2q-20 2 -33 8q-16 10 -22 25q-6 18 0 37q14 41 77 71q45 18 115 35q39 10 88 19q-20 43 -35 86q-10 31 -53 284l-8 41q-16 -55 -59 -145q-98 -209 -199 -369 q-98 -160 -223 -280q-12 -12 -28 -12l-1 1q-18 0 -30 12t-12 28q0 19 13 32zM373 287q113 -33 188 -66q10 -4 86 -43q-49 78 -88 152q-59 -8 -106 -19.5t-80 -23.5z" />
<glyph unicode="b" horiz-adv-x="1202" d="M-8 858q-1 13 -1 26q0 57 29 97q39 55 134 80q76 19 148 19q79 0 153 -23q152 -45 250 -158q51 -57 51 -119q0 -45 -27 -92q-47 -84 -168 -149l-6 -4q178 -63 270 -160q61 -66 61 -131q0 -45 -30 -90q-57 -82 -207 -138q-104 -37 -223 -51q-52 -6 -100 -6q-62 0 -119 10 v-22q-2 -16 -6 -25q-10 -25 -35 -26q-4 -1 -7 -1q-20 0 -34 19q-4 8 -6 18q-2 5 -2 11q-2 4 -2 6q-2 6 -4 14q0 12 -2 33v4q-31 20 -15 53q4 8 10 13q0 18 -2 38q-4 133 -6 322v63q-14 82 -30 140q-4 8 -41 108q-27 74 -33 121zM74 866q4 -33 24 -88q2 127 8 174 q-12 -8 -20 -18q-13 -20 -12 -52q-1 -7 0 -16zM178 496l6 -33q23 -143 25 -348v-64q50 -10 113 -10q39 0 84 4q113 12 215 49q125 45 165 105q15 21 15 44q0 35 -37 74q-94 100 -326 170q-51 -16 -96 -22q-28 -4 -52 -4t-44 4q-43 8 -68 35v-4zM178 582q10 8 27 12 q19 4 49 5q10 0 22 -1q80 -4 160 -25q45 16 86 37q100 55 135 119q15 25 15 49q0 34 -29 68q-84 94 -213 133q-61 18 -128 18q-58 0 -120 -14q10 -17 8 -33q-8 -33 -10 -188q-2 -80 -2 -180z" />
<glyph unicode="c" horiz-adv-x="1208" d="M0 240q1 24 1 47t-1 45q14 483 403 688q92 47 154 55q18 3 39 3q57 0 129 -21q25 -8 36 -29.5t4 -45.5t-28.5 -35t-44.5 -5q-57 18 -96 18q-12 0 -23 -2q-41 -6 -116 -45q-326 -170 -338 -585v-35q0 -58 5 -91q7 -42 40 -71q78 -64 265 -64q19 0 38 1q160 6 350 53 q25 6 45.5 -7.5t26.5 -37.5q2 -7 2 -14q1 -16 -9 -30q-14 -20 -36 -26q-201 -49 -375 -55q-24 -1 -46 -1q-225 0 -335 91q-48 37 -70 95q-21 53 -20 96v8z" />
<glyph unicode="d" horiz-adv-x="1284" d="M-153 1021q0 3 1 5q0 12 9 21q17 26 54 26h3q20 0 53 -8q47 -12 119 -45l45 -21q-2 18 -6 37q-4 16 5 30q8 16 26 20q6 1 11 1q11 -1 21 -7q14 -10 19 -27q10 -47 16 -99l51 -28l119 -62l160 -86q66 -35 152 -89t139 -103q122 -110 121 -211q0 -20 -4 -39 q-33 -137 -295 -234q-94 -35 -242 -65q-163 -34 -304 -34q-54 0 -106 5q-16 0 -27.5 13.5t-10.5 31t14.5 28.5t32.5 9q42 -3 86 -3q137 0 299 32q141 29 229 61q219 82 242 174q2 9 2 19q0 66 -93 151q-51 45 -132 96.5t-144 84.5l-156 81l-123 66l-6 4q1 -20 1 -41 q0 -31 -2 -67q-3 -60 -7 -100t-10 -106.5t-10 -92.5q-2 -39 -11.5 -112t-13.5 -99q0 -6 4 -62q2 -27 2 -35q-2 -10 -6 -16q-12 -25 -39 -25q-18 0 -31 15q-4 4 -8 10q-43 66 -61 184q-2 14 -15 94q-8 53 -14 82q-14 63 -92 306l-47 151q-10 33 -14 49q-2 10 -5 17zM-59 985 l6 -18l47 -152q86 -279 94 -309q8 -35 16 -90l5 -33q4 41 8 74q2 25 10 110.5t10 111.5t6 112q2 43 2 70.5t-2 39.5q-49 25 -90 43q-68 29 -108 41h-4z" />
<glyph unicode="e" horiz-adv-x="1259" d="M-51 973v2v2v2q0 18 6 31q20 35 80 49q41 8 104 12q33 2 75 2q84 0 202 -8q268 -18 471 -47q20 -4 32.5 -20.5t9.5 -38t-19.5 -34t-39.5 -10.5q-209 33 -460 48q-104 8 -185 8q10 -67 10 -152q0 -107 -16 -241q114 14 215 14q192 0 336 -51q20 -8 29.5 -27.5t2.5 -39 t-26.5 -29t-38.5 -3.5q-128 47 -306 47q-103 0 -224 -16q-8 -70 -12 -111q-10 -106 -15 -245v-4q57 0 161.5 2t131.5 2q274 0 422 -17q19 -2 33 -20q12 -15 12 -32v-5q-2 -19 -20 -33q-15 -12 -32 -12h-5q-139 16 -410 16q-35 0 -102.5 -1t-121.5 -2t-104 -1q-12 -2 -26 0 q-33 2 -64 2q-20 0 -34.5 15.5t-14.5 37t15.5 36t37.5 14.5h11v8q-2 12 -4.5 33.5t-3.5 36t-3 22.5l-34 250q-12 12 -17 29q-2 18 6 34l-12 90l-37 248l-12 80l-2 23zM55 956l13 -75l34 -248l11 -70h2q18 148 18 259q0 83 -10 145q-39 -2 -64 -9q-2 0 -4 -2z" />
<glyph unicode="f" horiz-adv-x="1236" d="M-63 977v8v4v2v6q2 12 8 21q20 33 80 47q39 10 102 12q35 2 78 2q86 0 201 -8q281 -16 468 -47q20 -4 33 -22q10 -13 10 -29q0 -4 -1 -9q-3 -20 -20 -32t-38 -10q-182 31 -461 49q-106 6 -186 6q9 -66 9 -149q0 -108 -15 -244q115 14 216 14q193 0 335 -51 q20 -8 29.5 -27.5t2 -39t-27 -29t-37.5 -2.5q-126 46 -302 46q-105 0 -228 -16q-8 -70 -13 -110q-12 -133 -14 -246q0 -2 1 -5t2 -10.5t3 -17.5q4 -20 0 -35q-6 -29 -33 -39q-10 -5 -21 -5q-13 0 -26 7q-12 6 -20 17l-4 8q-2 2 -2 6v4q-2 0 -3 2v2v4l-2 17l-6 47l-12 94 q-2 25 -35 252q-12 12 -16 29q-2 19 6 35l-12 90l-35 245q-8 53 -10 82q-2 16 -4 25zM41 965q4 -29 12 -80l35 -246l8 -70h4q18 151 18 264q0 81 -9 142q-39 -4 -62 -10h-6z" />
<glyph unicode="g" horiz-adv-x="1216" d="M-64 326v24q0 83 26 155q30 83 89 165q78 111 191.5 201t222.5 137q106 45 287 59h5q17 0 31 -13q17 -14 19 -34.5t-12.5 -36.5t-34.5 -18q-164 -12 -254 -52q-96 -41 -198.5 -122.5t-172.5 -180.5q-99 -138 -99 -259q0 -81 44 -154q78 -127 260 -142q24 -2 47 -2 q139 0 279 60l61 28l37 21q6 4 10 8h2q18 27 21 41q0 4 -2 6q-20 20 -97 27q-18 1 -37 1q-58 0 -123 -9q-85 -13 -116 -27q-18 -10 -39 -3t-30 25.5t-2 39t26 28.5q47 23 147 37q69 10 131 10q27 0 52 -2q115 -8 159 -55q32 -32 32 -74q0 -7 -1 -14q-4 -43 -41 -95 q-10 -14 -39 -30q-18 -12 -43 -25q-43 -23 -67 -33q-160 -67 -316 -67q-30 0 -59 2q-231 18 -338 190q-53 86 -58 183z" />
<glyph unicode="h" horiz-adv-x="1114" d="M-68 332v21q0 35 5 53q10 31 43 45q8 4 16 6q16 135 22 209q2 27 2 58q0 55 -6 126q-10 111 -47 184q-8 20 -1 40q6 20 26 29q11 5 22 5l18 -4q20 -8 29 -25q31 -67 47 -145q14 -69 14 -149q0 -10 -1 -21q-2 -92 -6 -150.5t-15 -154.5h9q33 -2 84 -10l30 -5q12 -2 15 -2 q12 0 251 -6q86 -2 146 -4q10 561 10 596q0 20 15.5 35.5t36 15.5t36 -15t15.5 -36q0 -23 -11 -604h11q23 -2 36 -18q11 -14 11 -33v-5q-2 -22 -18.5 -35.5t-37.5 -10.5h-4q-1 -57 -1 -111q0 -107 3 -199q0 -23 -14 -38t-35.5 -15t-37 14.5t-15.5 34.5q-3 94 -3 206 q0 56 1 116q-55 2 -144 4q-242 6 -256 6q-8 0 -24 2l-31 6q-49 6 -80 8q-6 2 -10 2q-8 -55 -12 -118.5t-4 -116.5q18 -59 20 -105q2 -25 -4 -38q-10 -35 -45 -39h-8q-28 0 -43 26q-10 14 -15 39q-4 23 -6 55q-2 20 -2 45q-12 49 -26 138z" />
<glyph unicode="i" horiz-adv-x="487" d="M47 981v5q-1 16 11 32q14 18 34 20h6q18 0 32 -12q18 -14 20 -33q10 -77 10 -199v-42q-2 -209 -2 -234q0 -41 5 -155.5t5 -154.5t-2 -155q0 -20 -16.5 -34.5t-37 -14.5t-35 16.5t-14.5 36.5q3 113 3 154v9q0 42 -4 142q-4 110 -7 152q0 29 2 238v40q0 117 -10 189z" />
<glyph unicode="j" horiz-adv-x="825" d="M-68 32.5q0 20.5 15.5 36t36.5 15.5q182 0 229 8q59 10 123 74q68 66 68 181q0 41 -9 89q-12 66 -45 168l-51 160q-27 96 -27 240q0 20 15.5 35.5t36 15.5t36 -15.5t15.5 -35.5q0 -129 22 -211q6 -18 49 -158q37 -109 50 -180q11 -58 11 -110q0 -155 -97 -253 q-88 -86 -181 -102q-53 -8 -245 -8q-20 0 -36 15t-16 35.5z" />
<glyph unicode="k" horiz-adv-x="1097" d="M8 20v11v28q0 131 10 199q4 33 13 61q0 16 2 31q14 156 19 229.5t5 199.5t-12 225q-2 20 11.5 36.5t33.5 19.5q4 1 8 1q16 1 29 -11q16 -14 20 -34q12 -100 12 -229t-12 -289q10 4 25 12q41 20 51 29q33 25 64 55l69 74l62 67q84 84 149 142q-4 35 29 51q8 4 15 8 t16.5 10t15.5 8q35 23 66 29h16q23 0 37 -14q18 -17 18 -37q0 -12 -6 -25q-4 -8 -12 -16l-35 -27l-39 -26q-23 -12 -29 -19q-74 -59 -167 -157q-18 -16 -60 -62l-76 -80q-35 -37 -71 -63q-16 -12 -43 -27q145 -82 284.5 -195.5t214.5 -218.5q12 -18 9 -38q-2 -22 -20 -34 q-14 -10 -29 -9q-5 1 -9 1q-20 4 -33 19q-74 102 -218 216t-285 191q-14 -27 -25 -61q-14 -125 -14 -133q0 -2 -4 -105v-26q-2 -12 -2 -17v-4q0 -4 -2 -6q-2 -10 -11 -18q-12 -14 -30 -17q-25 -4 -43 13l-15 22q0 4 -2 10z" />
<glyph unicode="l" horiz-adv-x="1167" d="M7 374q3 58 13 132l29 166q23 120 29 188q3 29 3 56q0 36 -5 69q-2 20 10 36.5t34 19.5q4 1 8 1q16 0 30 -10q16 -12 20 -35q4 -34 5 -72q0 -34 -4 -71q-7 -80 -29.5 -207t-26.5 -155q-14 -83 -15 -152q0 -42 6 -78q14 -98 72 -147q14 -11 64 -15q26 -2 61 -2q31 0 70 2 q45 2 139 11q61 6 90 8q9 2 17 2h170q20 0 35.5 -15.5t15.5 -36t-15.5 -36t-35.5 -15.5h-152q-6 -2 -14 -2q-25 0 -101 -6q-98 -10 -143 -12q-44 -3 -80.5 -3t-64.5 3q-82 6 -121 39q-47 37 -75 92t-35 121q-5 47 -5 89q0 18 1 35z" />
<glyph unicode="m" horiz-adv-x="1228" d="M-84 948v13q0 16 8 28q4 8 12.5 14.5t14.5 8.5l4 2q6 0 12 2h19q14 0 45 -2q37 -2 139 -8q227 -16 295 -17q147 2 225 39q4 0 7 3t12 9l18 17q34 27 65 27q19 0 37 -9q45 -24 45 -87v-5q0 -12 -1 -24.5t-1 -14.5t2 -10q20 -106 28 -232q8 -113 8 -197v-19q-1 -89 -4 -231 t-3 -216q0 -20 -15.5 -35.5t-36 -15.5t-35.5 15t-15 36q0 80 3 221t4 227v20q0 80 -7 185q-8 119 -29 221q-2 16 -2 48q-20 -18 -35 -27q-98 -45 -270 -47q-63 0 -229 10q3 -41 3 -94q1 -96 -9 -233q-14 -212 -15 -248q-2 -68 -2 -93v-49q-2 -14 -2 -16v-6v-6q0 -2 -2 -7v-2 l2 -4v-6l2 -4q0 10 -2 21v-11v-6q0 -41 2 -67q-14 -31 -49 -35q-20 -25 -33 6q-10 6 -18.5 14t-16.5 23q-8 18 -16 49q-12 43 -25 110q-2 14 -14 68l-29 150q-20 94 -32 159l-48 234q-8 49 -12 78q-4 16 -4 26zM25 911q4 -20 8 -49l47 -231l39 -189q2 35 7 116t8 122 t3 105.5t-6 119.5zM109 162v2v-2zM213 29l2 43q-2 -2 -2 -6v-37zM213 129q2 -8 2 -12q3 -15 3 -28q0 -6 -1 -11q-2 -2 -2 -6q0 29 -2 57z" />
<glyph unicode="n" horiz-adv-x="1181" d="M-33 1020q23 33 62 33q27 0 55 -17l16 -12q4 4 9 4q20 8 39.5 0t25.5 -29q16 -39 27 -79q35 -45 59 -86q10 -16 35 -64l53 -104q84 -164 137 -260q86 -154 146 -226q33 -39 55 -51q4 -4 6 -4q8 8 19 29q14 33 24 88q20 106 25 270q1 41 1 82q0 101 -7 197 q-10 135 -27 182q-6 20 4 39.5t29.5 25.5t39 -4t25.5 -28q18 -59 31 -203q7 -101 7 -208q0 -43 -1 -87q-4 -174 -26 -285q-12 -68 -33 -110q-25 -57 -64 -80q-21 -12 -44 -12q-30 0 -62 20q-37 23 -82 74q-63 78 -156 239q-51 90 -139 267l-27 53q0 -137 -38.5 -386 t-43.5 -288q0 -2 -1 -4t-1 -4q-2 -8 -6 -17q-2 -4 -6 -8q-3 -4 -17 -11q-9 -4 -19 -4q-5 0 -11 1q-12 2 -21.5 9t-13.5 13l-2 7l-4 14v6v18v13v14v10v90q0 29 -8 209q-2 45 -2 179.5t-10.5 217.5t-36.5 158l-2 2q-4 4 -13 17q-19 27 -19 51q0 20 13 39zM104 874 q9 -26 13 -55q-4 29 -11 53z" />
<glyph unicode="o" horiz-adv-x="1243" d="M8 236q-34 84 -34 178q0 104 42 219q37 100 100.5 189t148.5 157q85 67 195 101q81 25 164 25q30 0 60 -3q18 -2 30.5 -15.5t14.5 -31.5q117 -53 166 -226q30 -104 30 -215q0 -86 -18 -178q-45 -229 -178 -358q-119 -115 -278 -115q-55 0 -115 14q-248 55 -328 259z M102 274q61 -154 254 -198q46 -10 88 -10q124 0 215 86q109 106 148 303q16 83 16 160q0 98 -26 186q-43 150 -133 170q-12 5 -29 5q-9 0 -19 -1q-30 -4 -46.5 -6t-47 -14.5t-49 -20.5t-51.5 -25q-13 -7 -26 -7q-20 0 -36 18q-172 -115 -247 -322q-36 -99 -36 -187 q0 -72 25 -137z" />
<glyph unicode="p" horiz-adv-x="1103" d="M-100 879v9q0 33 12 52q16 23 53 39q23 10 58 20q35 8 75 15q8 6 17 8q8 2 15.5 2t14.5 -2q115 16 201 16t143 -16q139 -39 236 -137q61 -62 61 -124q0 -22 -8 -44q-23 -63 -110 -109q-113 -57 -287 -80q-63 -8 -193 -14q-1 -20 -1 -39q0 -37 3 -67q2 -35 10.5 -102.5 t10.5 -98.5q2 -41 8 -88l2 -31q2 -4 2 -10v-4v-8q-2 -8 -6 -19q-14 -25 -43 -27h-4q-22 0 -37 19q-23 25 -41 84q-12 41 -26 106q-4 16 -23 107q-12 53 -18 74q0 4 -15 49l-30 98l-31 102q-29 100 -39 156q-8 39 -10 64zM2 885q2 -18 8 -49q10 -55 37 -150l25 -84q10 6 20 8 q6 70 6 84q3 49 3 91q0 73 -9 124q-25 -4 -45 -10q-25 -6 -41 -14h-4zM193 924q11 -60 11 -145q0 -42 -3 -91q-2 -25 -4 -72q111 6 172 15q156 18 252 67q53 29 61 54q1 4 1 8q0 22 -32 55q-76 78 -190 109q-45 12 -112 12t-156 -12z" />
<glyph unicode="q" horiz-adv-x="1323" d="M-31 283q-13 52 -13 106q0 112 56 236q72 152 207 266.5t301 142.5q48 11 95 11q78 0 151 -33q215 -104 238 -314q2 -22 2 -44q0 -158 -111 -324q-41 -63 -98 -119q59 -66 100 -119q14 -16 12 -37.5t-18.5 -35t-38 -11.5t-33.5 19q-43 53 -98 114q-78 -61 -161 -97 t-176 -43q-16 -1 -31 -1q-76 0 -148 29q-190 72 -236 254zM68 307q33 -129 174 -184q57 -20 116 -20q44 0 90 11q105 27 205 105l-129 143q-14 14 -12 36t17.5 36.5t37 12t35.5 -18.5l127 -141q45 47 82 100q92 139 92 267q0 17 -2 34q-16 152 -180 230q-41 20 -82 24 q-11 -4 -21 -4q-39 0 -77 -6q-53 -14 -121 -51q-18 -10 -41 -4q-88 -47 -160 -125t-113 -170q-48 -103 -48 -194q0 -42 10 -81z" />
<glyph unicode="r" horiz-adv-x="1232" d="M-80 889q14 121 105 143q58 17 164 17q9 -1 18 -1q119 -2 233 -22q129 -27 217 -74q111 -59 136 -151q8 -29 8 -57q0 -88 -80 -156q-72 -61 -191 -86q-23 -6 -65 -13q12 -8 88 -65t108.5 -84t90 -79t95.5 -102t62 -102q4 -11 4 -21q0 -8 -3 -18q-6 -20 -26 -29 q-11 -5 -22 -5l-18 3q-20 7 -29 25q-20 47 -53 90t-84 88l-86 74q-35 29 -105 80l-92 70q-2 2 -45 26.5t-61 57.5q-16 31 6 57q6 8 14 12q4 2 10 4q2 0 5 2h4h4l16 2l49 7l113 18q92 20 145 68q43 35 43 81q0 13 -4 27q-12 47 -84.5 86t-189.5 64q-88 16 -184 20 q10 -15 10 -33q0 -23 1 -94t3 -181t2 -194q1 -56 1 -105q0 -99 -3 -171q-2 -63 -8 -98q-2 -20 -6 -35q-6 -27 -21 -39q-16 -16 -36 -16q-10 0 -21 4q-18 8 -29 24q-6 12 -14 35q-2 10 -29 111l-10 36q-2 2 -2 5q-2 2 -4 8l-43 149q-4 12 -19 58l-22 77q-35 115 -52 201 q-17 90 -17 154q0 26 3 47zM23 879q-2 -18 -3 -40q0 -54 15 -130q16 -82 49 -193l22 -78q14 -45 19 -57l12 -43l6 -12q2 16 7 -7v125q0 82 -2.5 193t-3.5 183.5t-1 97.5q0 16 11 28q-66 -2 -105 -12q-20 -6 -26 -55zM53 272q6 -34 10 -34l-6 24l-2 8z" />
<glyph unicode="s" horiz-adv-x="1077" d="M-66 62q4 20 20.5 32t37.5 10q45 -7 100 -7q96 0 223 22q76 12 187 45q139 41 153 98q1 6 1 13q0 44 -56 108q-63 70 -170.5 139.5t-193.5 106.5q-4 2 -11.5 4t-17.5 6t-19 8q-43 16 -71 31q-47 25 -72 51q-31 34 -31 72q0 13 4 26q14 61 113 105q66 29 172 51 q171 36 273 36q19 0 36 -1q20 -2 35 -18.5t12.5 -37t-19 -35t-36.5 -12.5q-12 1 -26 1q-89 0 -252 -33q-96 -20 -154 -45q-45 -20 -55 -35l4 -4q12 -14 43 -31q23 -12 61 -27l51 -18q94 -41 211 -117t191 -155q81 -93 80 -174q0 -20 -4 -39q-29 -115 -224 -172 q-113 -33 -198 -50q-133 -23 -237 -23q-65 0 -120 9q-21 4 -33 22q-10 14 -9 29q0 5 1 9z" />
<glyph unicode="t" horiz-adv-x="1392" d="M-51 905q0 34 31 56q14 12 38 18q33 10 88 14q25 4 54.5 5t54.5 2t27 1q53 4 182 16.5t213 17.5q38 2 82 2q53 0 115 -3q114 -6 202 -30q20 -6 30 -24q7 -12 7 -25q0 -7 -2 -15q-6 -20 -24.5 -30.5t-38.5 -4.5q-80 23 -184 28q-52 2 -97 2.5t-85 -2.5q-79 -5 -205 -17.5 t-191 -16.5q-2 0 -24.5 -1t-51.5 -2t-53 -3q-8 -2 -15 -2q14 -14 31 -33q82 -94 160 -235q2 -6 139 -297l21 -41q2 47 7 145t5 140t-6 141q-2 20 11 37.5t33.5 19.5t38 -11.5t19.5 -33.5q6 -82 6 -137v-26q-2 -60 -7 -162.5t-5 -153.5q0 -72 8 -140q2 -8 4 -21t2 -15 q2 -10 2 -17q-2 -12 -6 -22q-8 -16 -24 -25q-11 -6 -24 -6q-7 0 -15 2q-14 6 -23 16l-10 11q-4 8 -12 20q-12 20 -33 59l-84 177q-135 289 -137 290q-72 131 -148 220q-23 25 -43 43l-14 4q-49 21 -49 65z" />
<glyph unicode="u" horiz-adv-x="1212" d="M-26 628q2 72 10 192t10 159q0 20 16.5 34.5t37 14.5t34.5 -16.5t14 -36.5q-2 -51 -10 -167t-10 -182q0 -9 -1 -19q0 -59 11 -136q10 -88 41 -154q45 -98 119 -153q72 -58 152 -66q14 -1 28 -1q67 0 133 35q80 42 141 134q39 55 60 119q20 63 26 141q4 61 4 109v25 q-2 56 -8 154.5t-8 148.5q0 23 14.5 38t36 15t37 -14.5t15.5 -34.5q2 -41 9 -140.5t7 -162t-6 -150.5t-32 -164t-69 -141q-78 -115 -182 -169q-88 -46 -182 -46q-17 0 -35 2q-111 12 -203 86q-94 72 -151 194q-35 74 -49 177q-11 91 -11 158q1 9 1 17z" />
<glyph unicode="v" horiz-adv-x="1228" d="M-44 985q-1 4 -1 8q0 16 10 30q12 17 33 20t39 -9q78 -55 135 -235q18 -51 41 -137.5t31 -108.5q37 -121 121 -270q4 -6 12 -25l16 -35q23 -51 43 -80l4 -8v17q10 66 49 204q41 150 80 258q82 225 250 418q14 16 36 18q3 0 6 1q18 -1 31 -13q15 -14 17 -36v-5 q0 -18 -12 -30q-156 -180 -229 -385q-39 -109 -80 -254q-37 -133 -45 -193l2 -20q2 -35 -10 -60q-16 -37 -48 -49q-14 -6 -27 -6q-20 0 -40 12q-35 18 -72 76q-23 35 -47 90l-18 37q-6 14 -9 18q-88 158 -129 287q-6 25 -30 111q-23 84 -39 135q-49 150 -101 186 q-16 12 -19 33z" />
<glyph unicode="w" horiz-adv-x="1464" d="M-8 946q6 21 24.5 31t39 3.5t30.5 -24.5q35 -66 62.5 -134t48.5 -154l32 -136q12 -47 33 -157.5t27 -136.5q16 -84 26 -117l4 -12l25 51q29 66 68 178l55 170q-53 305 -135 461q-10 20 -4 39.5t26 29.5q12 6 24 7l14 -3q20 -6 30 -24q68 -131 110 -320q49 117 134 267 q10 18 30.5 24t39 -4t24.5 -30.5t-4 -39.5q-90 -164 -144 -292q-10 -27 -41 -121q33 -186 45 -244q25 -104 33 -129q14 -37 29 -53l4 8q14 33 37 92l24 70l23 61l8 29q10 27 53 157t65.5 187t65.5 151q45 94 93 166q12 18 32.5 22.5t38.5 -7.5q19 -14 23 -34q1 -5 1 -10 q0 -15 -9 -28q-45 -66 -86 -154t-61.5 -143t-63.5 -181t-54 -159q-2 -2 -12 -29l-20 -65l-25 -68q-23 -66 -41 -102q-12 -25 -22 -39q-6 -10 -15 -18q-16 -14 -37 -17h-9q-52 0 -91 43q-27 31 -47 84q-10 33 -35 146q-6 31 -14 59q-37 -109 -66 -176q-18 -45 -35 -72 q-20 -35 -43 -51q-29 -18 -59 -12q-27 6 -45 28q-20 25 -39 74q-12 39 -31 129q-4 31 -25.5 141.5t-30.5 153.5t-30.5 126t-46 146.5t-57.5 122.5q-6 11 -6 24q0 7 2 15z" />
<glyph unicode="x" horiz-adv-x="1277" d="M-2 76q0 10 1 17t3 13l2 5q2 6 6 14q6 10 19 27q16 27 49 69q59 78 82 105q94 111 198 221l-47 51l-86 102q-57 72 -100 116t-90 75q-18 12 -23.5 32.5t7 38t33 22.5t36.5 -7q57 -35 107.5 -86t114 -128t79.5 -95l41 -47q197 197 444 403q14 12 33 12h5q22 -2 36 -18 q11 -14 11 -32q-1 -2 -1 -6q-2 -22 -18 -34q-246 -205 -438 -399l162 -166q127 -125 192 -197q14 -16 14 -36.5t-16 -35t-36.5 -14.5t-35.5 17q-66 72 -192 196l-160 162q-102 -106 -192 -213q-20 -25 -78 -100l-43 -60q10 -4 18 -8q16 -12 21.5 -32.5t-6.5 -37.5 q-14 -18 -34 -23q-6 -1 -11 -1q-14 0 -27 8q-2 2 -3 2t-7.5 2t-16.5 6q-45 20 -53 60z" />
<glyph unicode="y" horiz-adv-x="1232" d="M5 1032q5 21 23 32q13 8 27 8q6 0 13 -2q20 -5 30 -23q16 -25 60 -113l78 -160q49 -96 79 -147l15 -21q12 12 26 15q33 4 52 -23q10 6 20 16q59 45 145 142l144 170q84 100 112 123q16 14 37 12t35 -19q12 -14 12 -31v-5q-2 -21 -18 -35q-25 -20 -98 -111l-148 -174 q-92 -102 -157 -154q-37 -29 -68 -43v-19q0 -85 -16 -214q-27 -207 -27 -287v-10q0 -23 -14.5 -38t-36 -15t-36.5 14t-15 35v13q0 92 26 302q17 120 17 198v9q-27 8 -54 39q-16 23 -39 57q-35 55 -84 154l-79 162q-43 88 -54 104q-8 13 -8 27q0 6 1 12z" />
<glyph unicode="z" horiz-adv-x="1189" d="M-8 970q2 22 17 36t38 12q10 0 160 4q98 4 177 3q52 0 95 -1q168 -4 260 -33q133 -42 133 -134q0 -10 -2 -21q-12 -72 -100 -127q-25 -16 -61 -35l-50 -25q-55 -31 -164.5 -102.5t-205.5 -149.5q-123 -100 -170 -174q-27 -41 -27 -68q0 -16 10 -26q16 -16 82 -20 q27 -2 66 -3h55q141 -4 209 -12q211 -26 261 -26h3q20 0 35.5 -15.5t15.5 -36t-15 -36t-36 -15.5q-57 0 -276 27q-70 8 -201 12h-51q-43 0 -74 2q-106 8 -147 53q-40 42 -40 95q0 56 44 125q57 88 190 198q100 82 214 156t173 106q6 2 54 27q33 16 53 29q47 31 51 57 q2 4 0 8t-16.5 14.5t-42.5 18.5q-80 25 -234 31h-55q-88 0 -209 -4q-156 -4 -172 -5q-21 1 -35 17q-13 14 -12 32v6z" />
<glyph unicode="{" horiz-adv-x="1054" d="M0 446q-2 20 8 39q10 14 29 23q14 4 37 4h8h14h4q33 16 56 37q66 63 77 160q10 63 -2 219q-14 174 -8 243q14 141 94 213q94 86 283 82q18 -2 31.5 -15t12.5 -32.5t-14.5 -33t-33.5 -13.5q-150 4 -217 -55q-51 -49 -62 -154q-8 -68 7 -229q12 -164 4 -238 q-18 -127 -107 -213q-14 -14 -31 -26l17 -8q47 -33 61 -78q10 -35 -14 -107q-12 -41 -47 -123q-76 -178 -80 -223q-27 -231 154 -313q80 -35 185 -30t206 50q16 8 34.5 1t26.5 -24.5t1 -36t-25 -26.5q-115 -51 -238 -57t-227 39q-113 49 -170.5 153.5t-40.5 255.5 q8 49 88 246q33 80 45 117l12 53q-2 10 -22 23q-20 14 -50 22q-2 2 -4 2q0 -2 -8 -2h-18q-23 0 -37 6q-33 14 -39 49z" />
<glyph unicode="|" horiz-adv-x="675" d="M162 743q0 78 6 178.5t11 171t3 159.5t-16 169q-4 27 11.5 47.5t42 25.5t47 -10t26.5 -42q12 -82 15 -180.5t-1 -176.5l-12 -176q-6 -100 -6 -166q0 -338 67 -944q2 -25 -14 -45t-42 -23t-46.5 13t-24.5 43q-68 610 -67 956z" />
<glyph unicode="}" horiz-adv-x="1054" d="M-2 1377.5q-2 19.5 10.5 32.5t32.5 15q272 18 393 -79q137 -113 109 -392q-4 -31 -15 -90l-12 -88q-10 -92 16 -151q12 -27 45 -63t62 -52h8q6 0 19 -2q20 -2 34 -8q31 -14 35 -47q2 -18 -6 -33q-8 -18 -27 -25q-16 -6 -36 -4q-4 2 -20.5 4t-24.5 2q-16 0 -25 -6 q-12 -12 -14 -51q-4 -45 4 -74q20 -74 24 -96q47 -299 -86 -455q-129 -156 -434 -170q-18 0 -32.5 12.5t-14.5 31t12.5 32.5t30.5 14q264 12 371 138q104 125 63 385q-2 18 -20 84q-12 43 -8 106q6 74 45 109l10 10q-70 59 -96 121q-37 82 -25 198q4 31 14 93q10 57 13 84 q23 231 -76 313q-92 76 -332 59q-18 -2 -31.5 10.5t-15.5 32z" />
<glyph unicode="~" horiz-adv-x="1517" d="M-4 396q-6 25 8 48q94 147 184 228q168 150 322 82q82 -35 119 -164q4 -18 11 -44t10 -38t8.5 -25.5t11.5 -23.5q23 -35 50.5 -50.5t78.5 -25.5q78 -14 151 70q23 27 44.5 57.5t48 75.5t38.5 63q14 23 40 28t48.5 -9.5t27.5 -40t-9 -47.5l-37 -60q-29 -47 -54.5 -84 t-52.5 -67q-121 -137 -270 -109q-72 12 -121 40t-90 89q-10 16 -20.5 41t-14.5 43l-12 47l-10 35q-20 72 -45 84q-80 35 -189 -61q-78 -70 -161 -203q-14 -20 -40 -26.5t-47.5 8t-27.5 39.5z" />
<glyph unicode="&#xa9;" horiz-adv-x="1771" d="M-53 561q-35 141 0 296t141 290q156 203 400.5 282.5t512.5 59.5q27 -2 44.5 -22.5t15.5 -45.5q-2 -16 -10 -30q193 -39 290 -166q111 -141 111 -414q0 -106 -14.5 -205.5t-52 -201t-97 -178t-156 -133t-219.5 -75.5q-125 -23 -292.5 -4t-288.5 80q-152 78 -251 202 t-134 265zM58 752.5q-13 -166.5 73 -312.5q88 -145 258 -231q100 -51 246 -68q143 -16 262 4q117 16 202 76t133 153t70.5 201.5t22.5 235.5q0 229 -82 336q-90 113 -307 131q-195 16 -340 -31q-25 -8 -48.5 3.5t-31.5 35.5q-4 9 -4 17q-203 -76 -326 -234 q-115 -150 -128 -316.5zM319.5 660.5q6.5 87.5 55.5 168.5q45 78 118.5 133.5t159.5 71.5q145 31 303 -6q25 -6 39.5 -27.5t8 -47t-27.5 -40t-48 -8.5q-131 29 -250 6q-57 -12 -109 -51q-53 -41 -86 -96q-72 -119 -10 -219q12 -20 68 -35q59 -16 155 -16q160 -2 299 26 q25 6 47.5 -8t27.5 -40t-9 -48.5t-41 -26.5q-152 -33 -324 -30q-113 0 -188 20q-106 27 -146 92q-49 94 -42.5 181.5z" />
<glyph unicode="&#xaa;" horiz-adv-x="1056" d="M-29 909.5q-2 26.5 15 46.5q53 63 96 134q4 18 18 30q53 88 123 246l39 88q14 35 25 55q8 12 12 21q12 18 27 29q35 23 82 16q49 -6 75 -41q47 -57 76 -191q2 -12 21 -98q10 -53 18 -78q53 -176 131 -323q12 -25 5 -49.5t-30.5 -37t-48 -5t-37.5 29.5q-68 127 -118 273 q-10 -6 -25 -6q-150 0 -289 -31q-45 -74 -102 -144q-16 -20 -43 -22t-47.5 14.5t-22.5 43zM268 1161q94 14 197 15q-6 20 -10 45l-19 94q-27 119 -37 135l-22 -49l-39 -84zM385 1456q2 2 5 -1t1 -5q2 2 4 2l2 2q-6 8 -12 2z" />
<glyph unicode="&#xad;" d="M-44 549.5q-5 25.5 9 48.5t41 27q59 12 119.5 20t131.5 10t115 3t130 0t114 -1q27 0 45.5 -18t18.5 -45t-18.5 -45.5t-45.5 -18.5q-33 0 -117.5 1t-125.5 0t-108.5 -3t-123 -9t-110.5 -17q-25 -6 -47.5 8t-27.5 39.5z" />
<glyph unicode="&#xae;" horiz-adv-x="1771" d="M-53 561q-35 141 0 296t141 290q156 203 400.5 282.5t512.5 59.5q27 -2 44.5 -22.5t15.5 -45.5q-2 -16 -10 -30q193 -39 290 -166q111 -141 111 -414q0 -106 -14.5 -205.5t-52 -201t-97 -178t-156 -133t-219.5 -75.5q-125 -23 -292.5 -4t-288.5 80q-152 78 -251 202 t-134 265zM58 752.5q-13 -166.5 73 -312.5q88 -145 258 -231q100 -51 246 -68q143 -16 262 4q117 16 202 76t133 153t70.5 201.5t22.5 235.5q0 229 -82 336q-90 113 -307 131q-195 16 -340 -31q-25 -8 -48.5 3.5t-31.5 35.5q-4 9 -4 17q-203 -76 -326 -234 q-115 -150 -128 -316.5zM389 999q0 39 10 62q35 74 142 90q76 12 178 -2q94 -12 174 -41q90 -33 127 -70q61 -61 41 -135q-12 -53 -66 -102q-49 -45 -131 -90q164 -82 287 -254q16 -20 12 -47t-25.5 -42.5t-48 -11.5t-40.5 27q-66 90 -152 157.5t-178 90.5h-2q-4 0 -7 -1 t-10.5 -2t-17.5 -3q-71 -8 -102 37q18 -82 20 -107q4 -53 6 -117q0 -4 2 -18q2 -23 4 -31q2 -25 -2 -41q-12 -45 -55 -51q-33 -6 -59 20q-12 12 -19 31q-2 8 -6 21q-4 16 -6 45q-6 45 -12 118q-6 82 -11 162l-20 90q-20 94 -29 152q-4 37 -4 63zM555 1026q8 -82 12 -293 q12 31 45 43q18 6 50 4q6 0 17 -1t17 -1h11q18 4 63 29q96 47 139 86q25 25 29 41q2 4 -8 14q-16 16 -80 39q-70 25 -150 37q-84 12 -139 2h-6z" />
<glyph unicode="&#xb0;" horiz-adv-x="944" d="M49 1165q-6 123 76 207q49 48 119 68q25 16 49 24q141 49 237 -32q82 -70 95 -195q6 -74 -14.5 -146.5t-80 -131t-145.5 -68.5q-147 -16 -238.5 67.5t-97.5 206.5zM176 1169q2 -70 53.5 -115.5t139.5 -35.5q63 6 100 66.5t29 140.5q-6 74 -49 108q-12 12 -29 19 q-23 -33 -60 -29q-35 4 -63 -2l-18 -16q-16 -12 -29 -21q-20 -14 -43 -12q-33 -41 -31 -103z" />
<glyph unicode="&#xc0;" horiz-adv-x="1705" d="M-15 62.5q1 17.5 13 29.5q168 156 305 371t270 489q66 135 105 281q27 104 27 151q0 4 -3 7v2v14q2 10 11 20q14 16 37 15q6 0 12 -3t8 -5l4 -2q10 -6 14 -17q2 -2 5 -6q0 -2 1 -5t1 -7q2 -8 6 -23l14 -76l41 -227q63 -348 74 -375q25 -72 61 -149l37 6q45 6 75 9t50.5 4 t44 0t35.5 -1t51 -4t66 -6q16 -2 28.5 -15.5t10 -30.5t-15.5 -29.5t-32 -10.5q-27 2 -63.5 6t-48.5 5t-33.5 2t-40.5 -1l-45 -6q-27 -2 -70 -8h-8q78 -145 191 -303l4 -4q2 -2 10 -8l14 -11q18 -14 27 -28q18 -31 -2 -62q-8 -12 -25 -16q-6 -2 -12 -2t-10 2q-2 0 -6 2t-13 4 l-34 16l-105 52l-172 86q-76 31 -229 77l-99 27l-28 8l-8 4h-3h-2h-2l-4 2q-33 20 -22 54q18 51 104 88q59 27 156 51q63 14 141 29q-31 68 -55 133q-14 43 -76 387l-22 119q-33 -123 -99 -259q-137 -281 -278.5 -501.5t-317.5 -382.5q-12 -12 -29.5 -11.5t-29.5 13t-11 30z M461 1907q-10 25 1 48t35.5 33.5t48 -1t34.5 -35.5q84 -219 213 -328q20 -18 22 -44t-15.5 -46.5t-43 -22t-45.5 14.5q-154 129 -250 381zM629 373l65 -19q158 -47 238 -82q16 -6 168 -82q-92 137 -158 263q-86 -14 -160 -31q-92 -20 -141 -45z" />
<glyph unicode="&#xc1;" horiz-adv-x="1705" d="M-15 62.5q1 17.5 13 29.5q168 156 305 371t270 489q66 135 105 281q27 104 27 151q0 4 -3 7v2v14q2 10 11 20q14 16 37 15q6 0 12 -3t8 -5l4 -2q10 -6 14 -17q2 -2 5 -6q0 -2 1 -5t1 -7q2 -8 6 -23l14 -76l41 -227q63 -348 74 -375q25 -72 61 -149l37 6q45 6 75 9t50.5 4 t44 0t35.5 -1t51 -4t66 -6q16 -2 28.5 -15.5t10 -30.5t-15.5 -29.5t-32 -10.5q-27 2 -63.5 6t-48.5 5t-33.5 2t-40.5 -1l-45 -6q-27 -2 -70 -8h-8q78 -145 191 -303l4 -4q2 -2 10 -8l14 -11q18 -14 27 -28q18 -31 -2 -62q-8 -12 -25 -16q-6 -2 -12 -2t-10 2q-2 0 -6 2t-13 4 l-34 16l-105 52l-172 86q-76 31 -229 77l-99 27l-28 8l-8 4h-3h-2h-2l-4 2q-33 20 -22 54q18 51 104 88q59 27 156 51q63 14 141 29q-31 68 -55 133q-14 43 -76 387l-22 119q-33 -123 -99 -259q-137 -281 -278.5 -501.5t-317.5 -382.5q-12 -12 -29.5 -11.5t-29.5 13t-11 30z M629 373l65 -19q158 -47 238 -82q16 -6 168 -82q-92 137 -158 263q-86 -14 -160 -31q-92 -20 -141 -45zM721 1541q-6 25 8 48q119 199 320 371q18 18 44.5 16t44 -21.5t15.5 -46t-23 -42.5q-184 -162 -294 -342q-12 -23 -38 -29t-48.5 7.5t-28.5 38.5z" />
<glyph unicode="&#xc8;" horiz-adv-x="1517" d="M-53 1341q-2 10 0 21q6 25 28 35q33 18 82 8l21 -4l16 -4h10q72 -4 107 -4q33 0 130 -2t138 -2l127 -5q86 -2 139 -6l127 -10q74 -6 139.5 -16.5t131.5 -22.5q20 -6 32.5 -23.5t7.5 -38t-22.5 -32.5t-38.5 -8q-137 27 -288 41q-160 14 -252.5 16t-294.5 4 q43 -184 -4 -520q434 55 708 -47q18 -6 27.5 -25.5t2.5 -39t-26.5 -29t-40.5 -0.5q-147 53 -334.5 59t-353.5 -22q-12 -96 -18 -152q-14 -143 -19 -315v-21q68 0 387 2q350 2 537 -16q20 -2 33.5 -18.5t11.5 -38t-18.5 -35t-38.5 -11.5q-178 18 -525 17q-315 -2 -385 -2v-8 l2 -17v-6v-2v-4q-2 -4 -2 -6q-2 -10 -8 -19q-10 -16 -30 -22q-23 -4 -41 10q-16 12 -17 20l-4 9v4q0 2 -2 6l-2 20l-2 17q-20 2 -41 2t-35 16.5t-14 37t16.5 34.5t36.5 14q12 0 25 -2l-62 475q-10 10 -14 27q-2 19 6 33l-37 309q0 12 -10 104q-4 59 -12 99q-4 25 -21 67 q-10 25 -12 31q-4 10 -4 18zM70 1298q10 -31 16 -57q6 -41 12 -106q8 -92 11 -101l34 -286l33 6q16 115 24.5 185.5t6.5 167.5t-23 175q-2 4 -2 8q-29 2 -82 4q-12 0 -30 4zM156 647l2 -22l4 22h-6zM354 1821q6 24 30 37.5t48.5 7.5t38.5 -29q63 -111 221 -278 q16 -18 16.5 -45t-19 -44.5t-46.5 -17t-45 20.5q-166 178 -238 299q-12 25 -6 49z" />
<glyph unicode="&#xc9;" horiz-adv-x="1517" d="M-53 1341q-2 10 0 21q6 25 28 35q33 18 82 8l21 -4l16 -4h10q72 -4 107 -4q33 0 130 -2t138 -2l127 -5q86 -2 139 -6l127 -10q74 -6 139.5 -16.5t131.5 -22.5q20 -6 32.5 -23.5t7.5 -38t-22.5 -32.5t-38.5 -8q-137 27 -288 41q-160 14 -252.5 16t-294.5 4 q43 -184 -4 -520q434 55 708 -47q18 -6 27.5 -25.5t2.5 -39t-26.5 -29t-40.5 -0.5q-147 53 -334.5 59t-353.5 -22q-12 -96 -18 -152q-14 -143 -19 -315v-21q68 0 387 2q350 2 537 -16q20 -2 33.5 -18.5t11.5 -38t-18.5 -35t-38.5 -11.5q-178 18 -525 17q-315 -2 -385 -2v-8 l2 -17v-6v-2v-4q-2 -4 -2 -6q-2 -10 -8 -19q-10 -16 -30 -22q-23 -4 -41 10q-16 12 -17 20l-4 9v4q0 2 -2 6l-2 20l-2 17q-20 2 -41 2t-35 16.5t-14 37t16.5 34.5t36.5 14q12 0 25 -2l-62 475q-10 10 -14 27q-2 19 6 33l-37 309q0 12 -10 104q-4 59 -12 99q-4 25 -21 67 q-10 25 -12 31q-4 10 -4 18zM70 1298q10 -31 16 -57q6 -41 12 -106q8 -92 11 -101l34 -286l33 6q16 115 24.5 185.5t6.5 167.5t-23 175q-2 4 -2 8q-29 2 -82 4q-12 0 -30 4zM156 647l2 -22l4 22h-6zM456 1503.5q-3 26.5 11 46.5q162 211 326 351q20 16 45.5 14t43 -22.5 t15.5 -46t-23 -44.5q-154 -129 -305 -329q-16 -20 -42.5 -23.5t-47 12t-23.5 42z" />
<glyph unicode="&#xcc;" horiz-adv-x="589" d="M-4 1931q-6 23 5 43.5t33.5 27.5t43 -4t28.5 -34q4 -12 17.5 -58t19.5 -63l17 -51q12 -37 20 -55l25 -49q12 -27 28 -52q12 -20 7.5 -43.5t-25 -36t-44.5 -7t-36 25.5q-16 29 -32.5 60.5t-26.5 55t-23 62.5l-20 57q-6 18 -19.5 63.5t-17.5 57.5zM139 1384q-2 20 11.5 37 t35 19t38 -11t18.5 -36q12 -131 8 -344q-2 -256 0 -336q2 -59 8 -162l10 -174q4 -72 3 -166t-7 -172q-2 -23 -18.5 -36t-38 -11t-34.5 18.5t-11 36.5q6 76 7 166t-3 160l-10 170q-6 102 -9 166q-2 82 0 342q4 209 -8 333z" />
<glyph unicode="&#xcd;" horiz-adv-x="733" d="M72 1621.5q-6 22.5 4 45.5q16 27 37 57l34 50q14 18 43 49.5t39 44.5l47 45l41 43q16 16 40 16t41.5 -16.5t17.5 -40t-17 -41.5q-10 -8 -37 -35l-36 -41l-33 -33q-23 -25 -35 -39l-27 -34q-16 -20 -29.5 -40t-24.5 -41.5t-33.5 -27.5t-44 5t-27.5 33.5zM84 1366 q-2 20 11.5 36.5t35 18.5t37.5 -11t18 -36q12 -125 9 -336q-4 -233 0 -327q2 -66 10 -158q6 -104 9 -172t3 -160t-6 -170q-2 -23 -18.5 -36t-38 -11t-35 18.5t-10.5 36.5q6 76 6 164t-3 153.5t-10.5 168t-9.5 162.5q-4 90 0 333q4 209 -8 326z" />
<glyph unicode="&#xd2;" horiz-adv-x="1527" d="M16 297q-94 233 7 520q47 133 131 250t195.5 206t256.5 132q143 45 299 29q20 -2 33.5 -20t11.5 -38q135 -55 203 -237q51 -143 55 -338q2 -166 -41 -332q-45 -164 -135 -291q-102 -141 -250 -203q-150 -61 -342 -16q-317 74 -424 338zM111 336q88 -217 354 -279 q305 -70 485 181q78 109 119 258q39 152 37 305q-2 176 -49 303q-59 162 -178 188q-76 16 -149 -5t-183 -77q-18 -10 -39 -4t-29 27q-2 2 -2 4q-123 -76 -216 -194.5t-142 -258.5q-86 -252 -8 -448zM528.5 1799q-6.5 24 6 43.5t36 25.5t43.5 -6q43 -27 92.5 -64t79.5 -63 l86 -72l76 -68q18 -14 20.5 -37.5t-13 -42t-39.5 -20.5t-42 14l-79 68l-82 70q-29 25 -74 58.5t-86 57.5q-18 12 -24.5 36z" />
<glyph unicode="&#xd3;" horiz-adv-x="1527" d="M16 297q-94 233 7 520q47 133 131 250t195.5 206t256.5 132q143 45 299 29q20 -2 33.5 -20t11.5 -38q135 -55 203 -237q51 -143 55 -338q2 -166 -41 -332q-45 -164 -135 -291q-102 -141 -250 -203q-150 -61 -342 -16q-317 74 -424 338zM111 336q88 -217 354 -279 q305 -70 485 181q78 109 119 258q39 152 37 305q-2 176 -49 303q-59 162 -178 188q-76 16 -149 -5t-183 -77q-18 -10 -39 -4t-29 27q-2 2 -2 4q-123 -76 -216 -194.5t-142 -258.5q-86 -252 -8 -448zM656.5 1570q3.5 24 21.5 38l72 55l77 57l66 54q43 33 76 61l63 57 q16 16 40 16.5t40 -17t16 -41t-18 -40.5q-31 -31 -65.5 -61.5t-77.5 -65.5l-70 -53l-80 -61l-69 -51q-18 -14 -42 -11.5t-38.5 21t-11 42.5z" />
<glyph unicode="&#xd9;" horiz-adv-x="1519" d="M16 834q0 84 21 466q2 23 17.5 37.5t37 12.5t35.5 -18t12 -36q-20 -381 -20 -462q2 -283 63 -418t162 -211q98 -78 211 -88.5t223.5 47t194.5 182.5q37 53 62.5 112.5t37.5 131.5t19.5 126t5.5 143t-4 134t-10.5 148.5t-10.5 136.5q-2 23 12.5 38t36 17t37 -12t17.5 -35 q2 -33 10 -133t10 -149.5t4 -142.5t-6 -155.5t-22.5 -141.5t-43 -146.5t-69.5 -128.5q-100 -147 -235.5 -217t-278.5 -58q-141 14 -262 107.5t-195 253.5q-70 152 -72 459zM424 1778.5q2 23.5 19.5 40t41 14.5t39.5 -18q121 -137 226 -306q12 -20 7 -43.5t-25.5 -36 t-44.5 -7t-36 25.5q-98 160 -213 289q-16 18 -14 41.5z" />
<glyph unicode="&#xda;" horiz-adv-x="1519" d="M16 834q0 84 21 466q2 23 17.5 37.5t37 12.5t35.5 -18t12 -36q-20 -381 -20 -462q2 -283 63 -418t162 -211q98 -78 211 -88.5t223.5 47t194.5 182.5q37 53 62.5 112.5t37.5 131.5t19.5 126t5.5 143t-4 134t-10.5 148.5t-10.5 136.5q-2 23 12.5 38t36 17t37 -12t17.5 -35 q2 -33 10 -133t10 -149.5t4 -142.5t-6 -155.5t-22.5 -141.5t-43 -146.5t-69.5 -128.5q-100 -147 -235.5 -217t-278.5 -58q-141 14 -262 107.5t-195 253.5q-70 152 -72 459zM498 1463.5q0 23.5 18 39.5q39 35 191 193q121 125 202 194q18 14 42 12.5t39.5 -20t13 -42 t-20.5 -40.5q-76 -63 -195 -184q-139 -147 -194 -199q-18 -14 -42 -14t-39 18.5t-15 42z" />
<glyph unicode="&#xe0;" horiz-adv-x="1306" d="M-47 17.5q0 17.5 12 29.5q205 213 412 625q53 100 78 198q18 72 18 105q-8 12 -8 26q2 18 14 31q25 25 53 6q14 -8 21 -24q2 -6 6 -10q2 -4 2 -11q4 -6 6 -18q4 -20 13 -55l28 -164q45 -250 51 -269q16 -49 41 -100q10 2 17 4q111 8 121 8t110 -6q18 -2 29.5 -15 t10.5 -30.5t-14 -29t-30 -11.5q-98 6 -104 6t-101 -6q53 -98 129 -205q2 -2 7.5 -5t11.5 -9q14 -12 22 -25q14 -29 -2 -55q-12 -18 -33 -20h-12q-4 2 -8 2l-8 4q-6 4 -21 10l-59 31q-98 49 -145 69q-98 39 -205 70h-8h-11h-12q-23 0 -35 6q-18 10 -25.5 28.5t1.5 37.5 q16 39 82 67q43 20 114 39q41 10 90 21q-18 43 -34 86q-10 31 -54 280l-8 41q-18 -57 -61 -145q-215 -424 -428 -645q-12 -14 -29.5 -14.5t-31 12t-13.5 30zM328 1446q-6 14 0 29.5t21.5 21.5t30.5 0t21 -22q61 -152 158 -244q12 -10 13 -26.5t-10 -29t-27.5 -13t-28.5 11.5 q-111 104 -178 272zM471 248q109 -35 182 -66q33 -12 84 -37q-49 76 -86 148q-59 -10 -108 -25q-41 -10 -72 -20z" />
<glyph unicode="&#xe1;" horiz-adv-x="1306" d="M-47 17.5q0 17.5 12 29.5q205 213 412 625q53 100 78 198q18 72 18 105q-8 12 -8 26q2 18 14 31q25 25 53 6q14 -8 21 -24q2 -6 6 -10q2 -4 2 -11q4 -6 6 -18q4 -20 13 -55l28 -164q45 -250 51 -269q16 -49 41 -100q10 2 17 4q111 8 121 8t110 -6q18 -2 29.5 -15 t10.5 -30.5t-14 -29t-30 -11.5q-98 6 -104 6t-101 -6q53 -98 129 -205q2 -2 7.5 -5t11.5 -9q14 -12 22 -25q14 -29 -2 -55q-12 -18 -33 -20h-12q-4 2 -8 2l-8 4q-6 4 -21 10l-59 31q-98 49 -145 69q-98 39 -205 70h-8h-11h-12q-23 0 -35 6q-18 10 -25.5 28.5t1.5 37.5 q16 39 82 67q43 20 114 39q41 10 90 21q-18 43 -34 86q-10 31 -54 280l-8 41q-18 -57 -61 -145q-215 -424 -428 -645q-12 -14 -29.5 -14.5t-31 12t-13.5 30zM438 1166.5q-4 17.5 4 33.5q100 168 254 340q12 14 30.5 15t32 -11t14.5 -30.5t-11 -30.5q-147 -168 -242 -328 q-10 -16 -27.5 -20.5t-34 5t-20.5 27zM471 248q109 -35 182 -66q33 -12 84 -37q-49 76 -86 148q-59 -10 -108 -25q-41 -10 -72 -20z" />
<glyph unicode="&#xe8;" horiz-adv-x="1236" d="M-37 979q21 35 78 49q39 10 100 14q102 4 269 -6q211 -14 452 -45q23 -4 35 -20.5t9 -38t-19.5 -33.5t-36.5 -10q-238 33 -447 45q-102 6 -176 8q23 -147 -4 -375q322 41 529 -39q20 -6 28 -25.5t1 -40t-26.5 -28.5t-39.5 0q-188 72 -506 29q-8 -68 -12 -107 q-10 -84 -15 -237v-2q55 0 155.5 2t125.5 2q268 0 409 -17q20 -2 34 -19t11.5 -37.5t-19.5 -34t-38 -11.5q-137 16 -395 16q-35 0 -99.5 -1t-116.5 -2t-99 -1q-14 -4 -31 0q-31 2 -60 2q-20 0 -34.5 15.5t-14.5 37t15.5 36t37.5 14.5h11q-27 260 -35 305l-4 25 q-18 12 -23 34q-4 25 13 43q-2 29 -17 138q-17 147 -31 229q-2 0 -8 10q-27 41 -6 76zM72 932q4 -10 6 -17q14 -88 33 -239l10 -92q27 217 4 354q-33 -2 -53 -6zM195 1504q2 26 21.5 44.5t45 16.5t43.5 -21q10 -12 47 -51t51 -55l46 -54q31 -37 48 -62.5t37.5 -61 t36.5 -72.5q10 -25 0 -49.5t-34.5 -34.5t-49 0t-34.5 35q-12 31 -29.5 60.5t-32 51t-43.5 54.5l-39 47q-12 14 -49 54t-49 52q-18 20 -16 46z" />
<glyph unicode="&#xe9;" horiz-adv-x="1247" d="M-31 971q20 33 78 47q39 10 103 14q96 6 268 -6q229 -16 454 -45q23 -4 35.5 -20.5t9 -38t-19.5 -33.5t-37 -10q-236 33 -448 45q-102 8 -179 8q20 -150 -6 -379q324 41 537 -39q18 -6 27.5 -25.5t2 -39t-26.5 -28.5t-40 -1q-195 72 -514 29q-8 -59 -12 -107 q-6 -59 -13 -240v-2q55 0 156.5 2t126.5 2q268 0 412 -16q20 -2 33.5 -19.5t11.5 -38t-19.5 -33.5t-38.5 -11q-137 16 -397 16q-35 0 -100.5 -1t-118.5 -2t-100 -1q-12 -2 -27 0q-33 2 -61 2q-20 0 -35 15.5t-15 37t15.5 35.5t38.5 14h8v7q-2 16 -5 48.5t-5 41.5 q-10 90 -33 241q-12 10 -17 29q-2 18 9 35q-23 143 -33 227q-2 20 -6 82q-2 43 -6 68q-2 2 -9 12q-27 41 -4 78zM76 920q4 -8 6 -15q6 -33 8 -86q4 -59 6 -76q9 -77 27 -196q31 240 8 381q-33 -2 -55 -8zM348.5 1167.5q-1.5 26.5 16.5 46.5q47 51 94 113l104 135 q57 78 90 117q16 20 42 23.5t46.5 -13t23.5 -42t-13 -46.5l-90 -117l-109 -141q-47 -61 -94 -115q-16 -18 -43 -20t-46.5 15.5t-21 44z" />
<glyph unicode="&#xec;" horiz-adv-x="612" d="M78 1434q-6 23 5 43t33.5 27t43 -4t28.5 -34q55 -176 91 -237q12 -20 6 -43t-26.5 -35t-43 -6t-35 26.5t-24.5 45.5l-19 40q-8 16 -18 46t-13.5 42.5t-14.5 46t-13 42.5zM172 985q-2 20 11.5 36.5t35 18.5t37.5 -11t18 -36q8 -90 7 -248q-2 -184 0 -241q0 -2 7 -162 t5 -162t-2 -162q0 -20 -16.5 -34.5t-37 -14.5t-35 16.5t-14.5 37.5q0 150 2.5 160t-5 157t-7.5 160q-2 59 0 245q2 154 -6 240z" />
<glyph unicode="&#xed;" horiz-adv-x="763" d="M163 1171.5q-7 22.5 3 42.5l22 37q10 18 25 37l25 31q10 12 28.5 31.5t25.5 27.5t28.5 30t25.5 28q16 16 40 16t41 -16.5t17 -40t-16 -41.5q-6 -4 -23.5 -23.5t-23.5 -25.5l-21 -23q-16 -14 -23 -22.5t-18.5 -22.5t-19.5 -25l-16 -24q-8 -14 -15 -27q-12 -20 -34.5 -27.5 t-43 4t-27.5 34zM172 985q-2 20 11.5 36.5t35 18.5t37.5 -11t18 -36q8 -90 7 -248q-2 -184 0 -241q0 -2 7 -162t5 -162t-2 -162q0 -20 -16.5 -34.5t-37 -14.5t-35 16.5t-14.5 37.5q0 150 2.5 160t-5 157t-7.5 160q-2 59 0 245q2 154 -6 240z" />
<glyph unicode="&#xf2;" horiz-adv-x="1243" d="M8 236q-72 178 8 397q37 100 100.5 189t148.5 157t194.5 101.5t224.5 21.5q18 -2 30.5 -15.5t14.5 -31.5q117 -53 166 -226q53 -184 12 -393q-45 -229 -178 -358q-160 -154 -393 -101q-248 55 -328 259zM102 274q61 -154 254 -198q180 -39 303 76q109 106 148 303 q37 188 -10 346q-43 150 -133 170q-18 8 -48 4t-46.5 -6t-47 -14.5t-49 -20.5t-51.5 -25q-35 -18 -62 11q-172 -115 -247 -322q-66 -182 -11 -324zM368 1512q5 24 24.5 37.5t43 8t35.5 -25.5l53 -78l66 -96q25 -37 53 -72q16 -18 14 -41.5t-20.5 -39t-42 -13.5t-37.5 20 q-33 37 -61.5 77t-69.5 104q-37 57 -49 75q-14 20 -9 44z" />
<glyph unicode="&#xf3;" horiz-adv-x="1243" d="M8 236q-72 178 8 397q37 100 100.5 189t148.5 157t194.5 101.5t224.5 21.5q18 -2 30.5 -15.5t14.5 -31.5q117 -53 166 -226q53 -184 12 -393q-45 -229 -178 -358q-160 -154 -393 -101q-248 55 -328 259zM102 274q61 -154 254 -198q180 -39 303 76q109 106 148 303 q37 188 -10 346q-43 150 -133 170q-18 8 -48 4t-46.5 -6t-47 -14.5t-49 -20.5t-51.5 -25q-35 -18 -62 11q-172 -115 -247 -322q-66 -182 -11 -324zM486.5 1252.5q3.5 23.5 21.5 35.5q57 41 160 135q113 102 163 144q18 14 42 11t38.5 -21.5t11.5 -42t-22 -37.5 q-47 -39 -158 -138q-102 -94 -165 -141q-20 -14 -44 -11t-37.5 22.5t-10 43z" />
<glyph unicode="&#xf9;" horiz-adv-x="1212" d="M-26.5 627.5q1.5 72.5 10 192.5t10.5 159q0 20 16.5 34.5t37 14.5t34.5 -16.5t14 -36.5q-2 -51 -10 -167t-10 -181.5t10 -155.5q10 -88 41 -154q45 -98 119 -153q72 -57 152.5 -65.5t160.5 33.5t141 134q39 55 59.5 119t26 141.5t4 134t-7.5 154.5t-8 148q0 23 14.5 38 t36 15t37 -14.5t15.5 -34.5q2 -41 9 -140.5t7 -162t-6 -150.5t-32 -164t-69 -141q-78 -115 -182 -169t-217 -44q-111 12 -203 86q-94 72 -151 194q-35 74 -49 177q-12 102 -10.5 174.5zM286 1414q3 24 22.5 37t43 10t37.5 -23l94 -140q59 -92 72 -108q14 -20 9 -44 t-24.5 -37t-43 -8t-35.5 23l-72 109l-94 139q-12 18 -9 42z" />
<glyph unicode="&#xfa;" horiz-adv-x="1212" d="M-26.5 627.5q1.5 72.5 10 192.5t10.5 159q0 20 16.5 34.5t37 14.5t34.5 -16.5t14 -36.5q-2 -51 -10 -167t-10 -181.5t10 -155.5q10 -88 41 -154q45 -98 119 -153q72 -57 152.5 -65.5t160.5 33.5t141 134q39 55 59.5 119t26 141.5t4 134t-7.5 154.5t-8 148q0 23 14.5 38 t36 15t37 -14.5t15.5 -34.5q2 -41 9 -140.5t7 -162t-6 -150.5t-32 -164t-69 -141q-78 -115 -182 -169t-217 -44q-111 12 -203 86q-94 72 -151 194q-35 74 -49 177q-12 102 -10.5 174.5zM381 1208.5q0 24.5 16 40.5q37 37 82 74l105 78q59 45 82 63q18 14 41.5 11.5t38 -21 t11.5 -42t-22 -38.5l-84 -63l-98 -76q-41 -33 -74 -68q-16 -16 -40.5 -16t-41 16.5t-16.5 41z" />
<glyph unicode="&#x2000;" horiz-adv-x="1002" />
<glyph unicode="&#x2001;" horiz-adv-x="2004" />
<glyph unicode="&#x2002;" horiz-adv-x="1002" />
<glyph unicode="&#x2003;" horiz-adv-x="2004" />
<glyph unicode="&#x2004;" horiz-adv-x="668" />
<glyph unicode="&#x2005;" horiz-adv-x="501" />
<glyph unicode="&#x2006;" horiz-adv-x="334" />
<glyph unicode="&#x2007;" horiz-adv-x="334" />
<glyph unicode="&#x2008;" horiz-adv-x="250" />
<glyph unicode="&#x2009;" horiz-adv-x="400" />
<glyph unicode="&#x200a;" horiz-adv-x="111" />
<glyph unicode="&#x2010;" d="M-44 549.5q-5 25.5 9 48.5t41 27q59 12 119.5 20t131.5 10t115 3t130 0t114 -1q27 0 45.5 -18t18.5 -45t-18.5 -45.5t-45.5 -18.5q-33 0 -117.5 1t-125.5 0t-108.5 -3t-123 -9t-110.5 -17q-25 -6 -47.5 8t-27.5 39.5z" />
<glyph unicode="&#x2011;" d="M-44 549.5q-5 25.5 9 48.5t41 27q59 12 119.5 20t131.5 10t115 3t130 0t114 -1q27 0 45.5 -18t18.5 -45t-18.5 -45.5t-45.5 -18.5q-33 0 -117.5 1t-125.5 0t-108.5 -3t-123 -9t-110.5 -17q-25 -6 -47.5 8t-27.5 39.5z" />
<glyph unicode="&#x2012;" d="M-44 549.5q-5 25.5 9 48.5t41 27q59 12 119.5 20t131.5 10t115 3t130 0t114 -1q27 0 45.5 -18t18.5 -45t-18.5 -45.5t-45.5 -18.5q-33 0 -117.5 1t-125.5 0t-108.5 -3t-123 -9t-110.5 -17q-25 -6 -47.5 8t-27.5 39.5z" />
<glyph unicode="&#x2013;" horiz-adv-x="1297" d="M-43 549.5q-7 25.5 12.5 48.5t57.5 27q84 12 169.5 20t185.5 10t162 3t183.5 0t161.5 -1q38 0 64 -18t26 -45t-26 -45.5t-64 -18.5q-47 0 -166.5 1t-177 0t-153 -3t-174 -9t-155.5 -17q-36 -6 -67.5 8t-38.5 39.5z" />
<glyph unicode="&#x2014;" horiz-adv-x="2322" d="M-41 549.5q-14 25.5 25.5 48.5t115.5 27q166 12 337 20t371.5 10t325 3t367 0t321.5 -1q77 0 129 -18t52 -45t-52 -45.5t-129 -18.5q-93 0 -331.5 1t-354.5 0t-306.5 -3t-347 -9t-312.5 -17q-70 -6 -133.5 8t-77.5 39.5z" />
<glyph unicode="&#x2018;" horiz-adv-x="704" d="M86 1180q27 139 186 325q18 20 44 22.5t46.5 -15t22.5 -43.5t-14 -46q-139 -162 -160 -268q-23 -115 70 -283q12 -23 5 -48t-30 -37.5t-48.5 -5.5t-37.5 30q-115 209 -84 369z" />
<glyph unicode="&#x2019;" horiz-adv-x="716" d="M117 817.5q-6 24.5 6 46.5l65 115q18 35 42 87t32 95q31 135 -59 285q-12 23 -6 48.5t28.5 38.5t48 7t39.5 -29q115 -193 74 -378q-12 -51 -40 -116t-48 -99l-66 -115q-14 -25 -38.5 -31t-48 7.5t-29.5 38z" />
<glyph unicode="&#x201c;" horiz-adv-x="923" d="M91 1206q11 123 63 228q12 23 36.5 31t48 -3.5t31.5 -36t-2 -49.5q-61 -135 -53 -281.5t72 -291.5q12 -25 2 -49.5t-34 -35.5t-48.5 -1t-34.5 33q-47 109 -69.5 221t-11.5 235zM340 1100q8 147 123 379q12 23 36.5 31t48 -3.5t32 -36t-1.5 -49.5q-104 -207 -111 -327 q-10 -154 119 -283q18 -18 18 -45t-18.5 -45.5t-45 -18.5t-44.5 19q-168 168 -156 379z" />
<glyph unicode="&#x201d;" horiz-adv-x="905" d="M-36 731.5q-7 24.5 5 48.5l80 158q31 63 66 150.5t47 166t4 152.5q-2 25 14.5 45.5t42 23.5t46 -13.5t24.5 -43.5q10 -88 -5.5 -182t-55 -194.5t-69.5 -163t-83 -160.5q-12 -23 -37 -30t-48.5 5.5t-30.5 37zM290 699.5q-7 25.5 5 48.5q123 225 147 325q31 127 2 352 q-2 27 13.5 47.5t42 23.5t47 -12t24.5 -42q31 -250 -6 -400q-29 -117 -159 -356q-12 -23 -38 -30t-48.5 5.5t-29.5 38z" />
<glyph unicode="&#x202f;" horiz-adv-x="400" />
<glyph unicode="&#x205f;" horiz-adv-x="501" />
<glyph unicode="&#x20ac;" horiz-adv-x="1771" d="M-292 490.5q-3 25.5 12.5 47t41.5 25.5q90 12 220 25q8 66 28 135q6 16 10 31q-29 0 -57 2q-25 2 -42 22.5t-15 46t22 43t47 15.5q51 -4 103 0q70 131 177 246.5t237 199.5q119 76 240.5 116t258.5 37t260 -63q25 -12 34 -36.5t-3 -48t-36.5 -33t-47.5 3.5 q-158 68 -317.5 44t-319.5 -126q-190 -123 -317 -314q29 8 95.5 24.5t102.5 24.5q14 4 45 11q141 33 221 49t206 33.5t231 17.5q27 0 45 -18.5t18 -45t-18.5 -45t-44.5 -18.5q-102 0 -235.5 -19.5t-200.5 -33.5l-238 -53q-31 -8 -94 -25l-115 -27q-51 -12 -100 -18 q-16 -41 -29 -80q-14 -45 -22 -88q127 12 200 20q141 16 381 62q297 55 385 70q27 4 48.5 -12.5t25.5 -42t-12.5 -47t-40.5 -25.5q-102 -14 -383 -68q-256 -49 -387 -63q-78 -8 -224 -21q10 -115 80 -186q133 -133 414 -97q18 2 151.5 35t165.5 43l91 25q76 20 101.5 29.5 t80.5 28t93 38t73 41.5q20 14 46.5 9t41 -26.5t9.5 -48t-28 -40.5q-39 -27 -84 -49.5t-106 -43.5l-90 -30q-31 -10 -105.5 -31t-85.5 -25q-37 -10 -175 -43.5t-163 -38.5q-162 -20 -297 14t-221 122q-104 104 -119 262q-115 -10 -198 -23q-25 -2 -46.5 13.5t-24.5 41z" />
<glyph unicode="&#xe000;" horiz-adv-x="1034" d="M0 0v1034h1034v-1034h-1034z" />
</font>
</defs>
</svg>
